<?xml version="1.0" encoding="utf-8"?>
<!-- Generator: Adobe Illustrator 26.2.0, SVG Export Plug-In . SVG Version: 6.00 Build 0)  -->
<svg version="1.1" id="Layer_1" xmlns="http://www.w3.org/2000/svg" xmlns:xlink="http://www.w3.org/1999/xlink" x="0px" y="0px"
	 viewBox="0 0 69.6 41.7" style="enable-background:new 0 0 69.6 41.7;" xml:space="preserve">
<style type="text/css">
	.st0{fill:#EEF1B7;}
	.st1{fill:#231F20;}
	.st2{fill:#EDF0B6;}
	.st3{fill:none;stroke:#006838;stroke-width:0.5;stroke-linecap:round;stroke-linejoin:round;stroke-miterlimit:10;}
	.st4{fill:#E6EEB7;}
	.st5{fill:#F7941D;}
	.st6{fill:#91D4D1;}
	.st7{fill:#91D3CF;}
	.st8{fill:#00A651;stroke:#231F20;stroke-width:0.5;stroke-linecap:round;stroke-linejoin:round;stroke-miterlimit:10;}
	.st9{fill:#EEF1B7;stroke:#EDF0B6;stroke-width:0.5;stroke-linecap:round;stroke-linejoin:round;stroke-miterlimit:10;}
	.st10{fill:#43A347;}
	.st11{fill:#E6EEB7;stroke:#231F20;stroke-width:0.5;stroke-miterlimit:10;}
	.st12{fill:#EEF1B7;stroke:#231F20;stroke-linecap:round;stroke-linejoin:round;stroke-miterlimit:10;}
	.st13{fill:#EEF1B7;stroke:#EDF0B6;stroke-linecap:round;stroke-linejoin:round;stroke-miterlimit:10;}
	.st14{fill:none;stroke:#231F20;stroke-linecap:round;stroke-linejoin:round;stroke-miterlimit:10;}
	.st15{fill:#EEF1B7;stroke:#EDF0B6;stroke-miterlimit:10;}
	.st16{fill:none;stroke:#006838;stroke-linecap:round;stroke-linejoin:round;stroke-miterlimit:10;}
	.st17{fill:#E6EEB7;stroke:#231F20;stroke-miterlimit:10;}
	.st18{fill:none;stroke:#231F20;stroke-linecap:round;stroke-miterlimit:10;}
	.st19{fill:none;stroke:#231F20;stroke-linejoin:round;stroke-miterlimit:10;}
	.st20{fill:#91D4D1;stroke:#91D3CF;stroke-linecap:round;stroke-linejoin:round;stroke-miterlimit:10;}
	.st21{fill:#00A651;stroke:#231F20;stroke-linecap:round;stroke-linejoin:round;stroke-miterlimit:10;}
	.st22{fill:#43A347;stroke:#43A347;stroke-linecap:round;stroke-linejoin:round;stroke-miterlimit:10;}
	.st23{fill:#EEF1B7;stroke:#231F20;stroke-width:0.9;stroke-linecap:round;stroke-linejoin:round;stroke-miterlimit:10;}
	.st24{fill:#EEF1B7;stroke:#EDF0B6;stroke-width:0.9;stroke-linecap:round;stroke-linejoin:round;stroke-miterlimit:10;}
	.st25{fill:none;stroke:#231F20;stroke-width:0.9;stroke-linecap:round;stroke-linejoin:round;stroke-miterlimit:10;}
	.st26{fill:#EEF1B7;stroke:#EDF0B6;stroke-width:0.9;stroke-miterlimit:10;}
	.st27{fill:none;stroke:#006838;stroke-width:0.9;stroke-linecap:round;stroke-linejoin:round;stroke-miterlimit:10;}
	.st28{fill:#E6EEB7;stroke:#231F20;stroke-width:0.9;stroke-miterlimit:10;}
	.st29{fill:none;stroke:#231F20;stroke-width:0.9;stroke-linecap:round;stroke-miterlimit:10;}
	.st30{fill:#91D4D1;stroke:#91D3CF;stroke-width:0.9;stroke-linecap:round;stroke-linejoin:round;stroke-miterlimit:10;}
	.st31{fill:#00A651;stroke:#231F20;stroke-width:0.9;stroke-linecap:round;stroke-linejoin:round;stroke-miterlimit:10;}
	.st32{fill:#43A347;stroke:#43A347;stroke-width:0.9;stroke-linecap:round;stroke-linejoin:round;stroke-miterlimit:10;}
</style>
<image style="overflow:visible;enable-background:new    ;" width="500" height="430" xlink:href="509FE181.png"  transform="matrix(1 0 0 1 -2235.1616 -110.0468)">
</image>
<g>
	<path class="st0" d="M-1309.9,264l-0.5,1.4c-0.1,0.2-0.2,0.4-0.4,0.4c-1.8,0-3.9,1.5,1.3,1.5c0,0,2.7,0,1.6-1.4l-0.7-2.1
		L-1309.9,264z"/>
	<path class="st1" d="M-1309.5,267.6c-2.8,0-3.3-0.4-3.5-0.7c-0.1-0.2-0.1-0.4,0-0.6c0.3-0.5,1.4-0.8,2.3-0.9c0,0,0,0,0-0.1l0.5-1.4
		c0-0.1,0.1-0.2,0.3-0.2l1.4-0.4c0.2,0,0.4,0.1,0.5,0.2l0.7,2.1c0.4,0.5,0.3,0.9,0.2,1.1C-1307.6,267.5-1309.1,267.6-1309.5,267.6
		C-1309.4,267.6-1309.5,267.6-1309.5,267.6z M-1312.3,266.5c0.2,0.1,0.9,0.3,2.8,0.3c0.6,0,1.4-0.2,1.5-0.4c0,0,0-0.2-0.2-0.4
		c0,0-0.1-0.1-0.1-0.1l-0.6-1.8l-0.9,0.2l-0.4,1.2c-0.1,0.4-0.4,0.6-0.7,0.6c0,0,0,0,0,0C-1311.4,266.1-1312,266.4-1312.3,266.5z"/>
</g>
<g>
	<path class="st0" d="M-1299,261.9c0,0,1.9-0.8,2.3-1.7"/>
	<path class="st2" d="M-1299,262.2c-0.2,0-0.3-0.1-0.3-0.2c-0.1-0.2,0-0.4,0.2-0.5c0.7-0.3,1.9-0.9,2.1-1.5c0.1-0.2,0.3-0.3,0.5-0.2
		c0.2,0.1,0.3,0.3,0.2,0.5c-0.4,1.1-2.3,1.9-2.5,1.9C-1298.9,262.2-1298.9,262.2-1299,262.2z"/>
</g>
<g>
	<path class="st1" d="M-1306.2,245.5c0.9,0.1,1.8,0.5,2.5,1c0.8,0.5,1.4,1.2,1.9,1.9c0.5,0.7,1,1.5,1.2,2.4c0.2,0.4,0.2,0.9,0.4,1.3
		c0,0.4,0.1,0.9,0.1,1.3v0c0,0,0,0,0,0s0,0,0,0c-0.3-0.8-0.6-1.6-1-2.4c-0.4-0.8-0.8-1.5-1.3-2.2c-0.5-0.7-1.1-1.3-1.7-1.9
		C-1304.8,246.4-1305.5,245.9-1306.2,245.5C-1306.3,245.5-1306.3,245.5-1306.2,245.5C-1306.3,245.5-1306.3,245.5-1306.2,245.5
		L-1306.2,245.5z"/>
</g>
<g>
	<path class="st1" d="M-1299.9,262.2c-0.2,0-0.3-0.1-0.4-0.3c-1.6-9-4.4-14.1-8.5-15.1c-7-1.8-15.5,9.1-15.6,9.2
		c-0.1,0.2-0.4,0.2-0.5,0.1c-0.2-0.1-0.2-0.4-0.1-0.5c0.4-0.5,8.9-11.3,16.4-9.5c4.4,1.1,7.5,6.4,9.1,15.8
		C-1299.6,261.9-1299.7,262.1-1299.9,262.2C-1299.9,262.2-1299.9,262.2-1299.9,262.2z"/>
</g>
<g>
	<path class="st1" d="M-1321.9,256.6c-0.1,0-0.3-0.1-0.3-0.2c-0.1-0.2,0-0.4,0.1-0.5l13.3-7.6c0.2-0.1,0.4,0,0.5,0.1s0,0.4-0.1,0.5
		l-13.3,7.6C-1321.7,256.6-1321.8,256.6-1321.9,256.6z"/>
</g>
<g>
	<path class="st0" d="M-1308.1,263.4l1.5-0.5l0.9,2.3c0.1,0.1,0.3,0.2,0.3,0.3c0.5,1.5,3.4,3.6-0.2,5.1c0,0-7.8,2.6-2.5-3.2V263.4z"
		/>
	<path class="st2" d="M-1308.5,271.5c-0.7,0-1.3-0.1-1.6-0.6c-0.5-0.7,0.1-1.9,1.7-3.7l0-4.1l2-0.8l1,2.7c0.1,0,0.3,0.1,0.3,0.3
		c0.1,0.3,0.4,0.7,0.6,1.1c0.6,0.8,1.2,1.8,0.9,2.8c-0.2,0.7-0.8,1.2-1.9,1.7C-1305.8,271.1-1307.3,271.5-1308.5,271.5z
		 M-1307.7,263.6l0,3.9l-0.1,0.1c-2,2.2-1.8,2.8-1.7,2.9c0.3,0.5,2.4,0.2,3.8-0.3c0.8-0.4,1.3-0.8,1.4-1.2c0.2-0.6-0.3-1.4-0.8-2.1
		c-0.3-0.5-0.6-0.9-0.7-1.3c-0.1,0-0.2-0.1-0.3-0.3l-0.8-2L-1307.7,263.6z"/>
</g>
<g>
	<path class="st1" d="M-1319.9,261.8c-0.1,0-0.3-0.1-0.3-0.2c-0.1-0.2,0-0.4,0.1-0.5l14.7-8.3c0.2-0.1,0.4,0,0.5,0.1s0,0.4-0.1,0.5
		l-14.7,8.3C-1319.7,261.8-1319.8,261.8-1319.9,261.8z"/>
</g>
<g>
	<polyline class="st0" points="-1319,266.3 -1318.3,264.9 -1316.3,265 -1317.9,267.4 -1319.1,267.1 -1319.1,266.2 	"/>
	<path class="st2" d="M-1317.7,267.9l-1.7-0.4l-0.1-1.2l0.4,0l-0.2-0.1l0.8-1.7l2.9,0.1L-1317.7,267.9z M-1318.7,266.8l0.7,0.2
		l1.1-1.7l-1.1,0l-0.6,1.2l-0.1,0L-1318.7,266.8z"/>
</g>
<g>
	<path class="st1" d="M-1317.4,264.2c-2.2,0-4.3,0-5.8-0.1c-0.2,0-0.4-0.2-0.4-0.4s0.2-0.4,0.4-0.4h0c7.6,0.2,15.8,0,16.8-0.7
		c0.1-0.6,0.1-5-9.7-12.4c-0.2-0.1-0.2-0.4-0.1-0.5c0.1-0.2,0.4-0.2,0.5-0.1c11,8.3,10,13,9.9,13.2c0,0,0,0.1-0.1,0.1
		C-1306.4,264-1312.2,264.2-1317.4,264.2z"/>
</g>
<g>
	<path class="st3" d="M-1324.9,263.9"/>
</g>
<g>
	<path class="st3" d="M-1324.9,263.5"/>
</g>
<g>
	<path class="st4" d="M-1325.3,263.9c1.5-0.5,0.3-3.9,0-6c-0.3-1.8-0.5-3.6-1-5.4s-1.2-3.4-1.9-5.1c-1.2-2.6-2.7-4.1-5.4-5
		c-2.5-0.8-4.7,0.7-4.9,3.5c-0.3,3.8,1.5,9.1,3.1,12.5c1.9,4.2,5.8,7,10.4,5.4"/>
	<path class="st1" d="M-1327.7,264.7c-3.7,0-6.7-2.8-8.1-6c-0.8-1.8-3.5-8.1-3.1-12.7c0.1-1.5,0.8-2.7,1.9-3.4
		c1-0.6,2.2-0.8,3.5-0.4c2.7,0.9,4.3,2.4,5.6,5.2c0.9,1.8,1.5,3.5,2,5.1c0.4,1.4,0.6,2.8,0.9,4.2c0.1,0.4,0.1,0.8,0.2,1.2
		s0.2,0.9,0.3,1.3c0.5,2.1,1,4.5-0.4,5l0,0C-1326,264.5-1326.9,264.7-1327.7,264.7z M-1335.1,242.6c-0.6,0-1.2,0.2-1.7,0.5
		c-0.9,0.6-1.4,1.6-1.6,2.9c-0.4,4.4,2.2,10.6,3.1,12.4c1.7,3.7,5.4,6.7,9.9,5.2l0,0c0.9-0.3,0.4-2.5,0-4.2c-0.1-0.5-0.2-1-0.3-1.4
		c-0.1-0.4-0.1-0.8-0.2-1.2c-0.2-1.4-0.4-2.8-0.8-4.1c-0.5-1.6-1.1-3.2-1.9-5c-1.2-2.6-2.8-4-5.2-4.8
		C-1334.3,242.6-1334.7,242.6-1335.1,242.6z"/>
</g>
<g>
	<path class="st0" d="M-1319.9,266.8c0,0-11.6,2.2-2.4,3.8c0,0,7.7,1,6.4-6.1"/>
	<path class="st2" d="M-1321.3,271c-0.6,0-1,0-1,0c-2.7-0.5-3.9-1-3.9-1.8c0-1.4,4.4-2.4,6.3-2.7l0.1,0.7c-3.2,0.6-5.6,1.5-5.6,2
		c0,0,0.1,0.5,3.2,1.1c0,0,3.4,0.4,5.1-1.4c0.9-1,1.2-2.4,0.8-4.3l0.7-0.1c0.4,2.1,0.1,3.8-1,4.9
		C-1317.9,270.8-1320.1,271-1321.3,271z"/>
</g>
<g>
	<path class="st1" d="M-1321.5,271.2c-0.6,0-1,0-1.1-0.1c-2.9-0.5-4.2-1.1-4.2-1.9c0-1.5,4.7-2.5,6.8-2.9c0.2,0,0.4,0.1,0.4,0.3
		c0,0.2-0.1,0.4-0.3,0.4c-3.2,0.6-6.1,1.6-6.1,2.2c0,0,0,0.6,3.5,1.2c0,0,3.7,0.5,5.6-1.5c1-1,1.3-2.6,0.9-4.7
		c0-0.2,0.1-0.4,0.3-0.4s0.4,0.1,0.4,0.3c0.4,2.3,0.1,4.1-1.1,5.3C-1317.8,271-1320.2,271.2-1321.5,271.2z"/>
</g>
<g>
	<path class="st1" d="M-1308.1,267.7c-0.2,0-0.4-0.1-0.4-0.4l-0.3-3.3c0-0.2,0.1-0.4,0.3-0.4c0.2,0,0.4,0.1,0.4,0.3l0.3,3.3
		C-1307.7,267.5-1307.9,267.7-1308.1,267.7C-1308.1,267.7-1308.1,267.7-1308.1,267.7z"/>
</g>
<g>
	<path class="st1" d="M-1305.1,266.3c-0.1,0-0.3-0.1-0.3-0.2l-1.2-2.6c-0.1-0.2,0-0.4,0.2-0.5c0.2-0.1,0.4,0,0.5,0.2l1.2,2.6
		c0.1,0.2,0,0.4-0.2,0.5C-1304.9,266.3-1305,266.3-1305.1,266.3z"/>
</g>
<g>
	<path class="st1" d="M-1308.3,271.5c-0.8,0-1.7-0.2-2-0.7c-0.4-0.8,0.2-1.9,1.9-3.6c0.2-0.1,0.4-0.1,0.5,0c0.1,0.1,0.1,0.4,0,0.5
		c-2,1.9-1.8,2.6-1.8,2.7c0.3,0.5,2,0.4,3.2,0.1c1.8-0.7,2.8-1.4,2.9-2.2c0.1-0.9-1.1-1.7-1.6-2c-0.2-0.1-0.2-0.3-0.1-0.5
		c0.1-0.2,0.3-0.2,0.5-0.1c0.1,0,2.1,1.2,2,2.7c-0.1,1.1-1.2,2.1-3.4,2.9C-1306.6,271.3-1307.5,271.5-1308.3,271.5z"/>
</g>
<g>
	<path class="st5" d="M-1327.8,253c-0.3,1-1.3,1.6-2.3,1.3c-1-0.3-1.6-1.3-1.3-2.3c0.3-1,1.3-1.6,2.3-1.3S-1327.6,252-1327.8,253z"
		/>
</g>
<g>
	<path class="st1" d="M-1334,256.9c-1.7,0-2.9-1-2.9-1c-0.2-0.2-0.2-0.5-0.1-0.7c0.2-0.2,0.5-0.2,0.7-0.1c0,0,1.4,1.1,3,0.7
		c1.2-0.3,2.4-1.3,3.3-3.1c0.1-0.2,0.4-0.3,0.7-0.2c0.2,0.1,0.3,0.4,0.2,0.7c-1.1,2.1-2.4,3.3-4,3.6
		C-1333.4,256.9-1333.7,256.9-1334,256.9z"/>
</g>
<g>
	<path class="st1" d="M-1302.5,263.7c-1.9,0-3.4-0.3-3.5-0.4l0.2-0.7c0.1,0,5.2,1.2,8.1-0.8c0.8-0.6,1.4-1.3,1.7-2.3l-2.6,1.7
		l-0.4-0.6l3.4-2.2c0.1-0.1,0.3-0.1,0.4,0c0.1,0.1,0.2,0.2,0.2,0.4c-0.2,1.6-1,2.9-2.2,3.7C-1298.9,263.4-1300.9,263.7-1302.5,263.7
		z"/>
</g>
<g>
	<path class="st6" d="M-1303.8,253.8l-3.7,2c0,0,2.6,3.5,2.4,4.8c0,0,3.1,0.8,3.4,0.2C-1301.8,260.7-1303.3,253.9-1303.8,253.8z"/>
	<path class="st7" d="M-1302.7,261.3c-0.8,0-1.8-0.2-2.6-0.4c-0.2,0-0.3-0.2-0.3-0.4c0.1-0.8-1.3-3.2-2.3-4.5
		c-0.1-0.1-0.1-0.2-0.1-0.3c0-0.1,0.1-0.2,0.2-0.2l3.7-2c0.1,0,0.2-0.1,0.3,0c0.2,0.1,0.8,0.3,2.3,7.2c0,0.1,0,0.2,0,0.3
		C-1301.6,261.2-1302.1,261.3-1302.7,261.3z M-1304.8,260.3c1.1,0.3,2.2,0.4,2.6,0.3c-0.6-2.7-1.3-5.5-1.7-6.3l-3.1,1.7
		C-1306.3,256.9-1304.9,259-1304.8,260.3z"/>
</g>
<g>
	<path class="st8" d="M-1304.4,252.8"/>
</g>
<g>
	<path class="st6" d="M-1314.8,249.2c0,0,1.3,0.7,1.4,0.9l3.5-2c0,0,0.3-0.7-1.7-0.3L-1314.8,249.2z"/>
	<path class="st7" d="M-1313.4,250.5c-0.1,0-0.2-0.1-0.3-0.1c-0.1-0.1-0.8-0.5-1.3-0.8c-0.1-0.1-0.2-0.2-0.2-0.3s0.1-0.3,0.2-0.3
		l3.2-1.4c0,0,0.1,0,0.1,0c1.1-0.2,1.8-0.1,2.1,0.2c0.2,0.2,0.2,0.4,0.1,0.6c0,0.1-0.1,0.1-0.2,0.2l-3.5,2
		C-1313.3,250.5-1313.3,250.5-1313.4,250.5z M-1314,249.3c0.2,0.1,0.5,0.3,0.6,0.4l2.8-1.6c-0.2,0-0.5,0-0.9,0.1L-1314,249.3z"/>
</g>
<g>
	<path class="st6" d="M-1321.7,257.6c0,0-0.6,1.2-0.3,1.9c0.3,0.6,1.7,0.6,1.8,0.7l8.2-4.6c0,0-1-1.4-2.5-2.2L-1321.7,257.6z"/>
	<path class="st7" d="M-1320.2,260.6c-0.1,0-0.1,0-0.2-0.1c-0.1,0-0.1,0-0.2,0c-0.5-0.1-1.3-0.2-1.7-0.8c-0.5-0.8,0.2-2.1,0.3-2.2
		c0-0.1,0.1-0.1,0.1-0.1l7.2-4.2c0.1-0.1,0.2-0.1,0.4,0c1.5,0.8,2.6,2.2,2.7,2.3c0.1,0.1,0.1,0.2,0.1,0.3s-0.1,0.2-0.2,0.2l-8.2,4.6
		C-1320.1,260.6-1320.1,260.6-1320.2,260.6z M-1321.4,257.9c-0.2,0.4-0.4,1.1-0.2,1.4c0.2,0.3,0.8,0.4,1.2,0.4c0.1,0,0.2,0,0.3,0
		l7.7-4.3c-0.4-0.4-1.1-1.1-1.9-1.6L-1321.4,257.9z"/>
</g>
<g>
	<path class="st9" d="M-1318.8,264.2"/>
</g>
<g>
	<path class="st10" d="M-1317.6,250.9c0,0,0.8,0.1,1.2,0.9l-5.4,3.1C-1321.9,254.9-1318.4,250.8-1317.6,250.9z"/>
	<path class="st10" d="M-1321.9,255.3c-0.1,0-0.2,0-0.3-0.1c-0.1-0.1-0.1-0.3,0-0.5c1.6-2,3.8-4.3,4.6-4.1c0.1,0,1.1,0.2,1.4,1.1
		c0.1,0.2,0,0.4-0.2,0.5l-5.4,3.1C-1321.8,255.3-1321.8,255.3-1321.9,255.3z M-1317.7,251.3c-0.3,0.1-1.4,1-2.4,2.2l3.1-1.8
		C-1317.3,251.4-1317.7,251.3-1317.7,251.3z"/>
</g>
<g>
	<path class="st10" d="M-1307.7,249.6c0,0,2.3-0.2,2.2,2.2l-3.9,2.4l-2.6-2.4L-1307.7,249.6z"/>
	<path class="st10" d="M-1309.5,254.6c-0.1,0-0.2,0-0.2-0.1l-2.6-2.4c-0.1-0.1-0.1-0.2-0.1-0.3c0-0.1,0.1-0.2,0.2-0.3l4.3-2.3
		c0,0,0.1,0,0.1,0s1.2-0.1,2,0.6c0.5,0.5,0.7,1.1,0.6,2c0,0.1-0.1,0.2-0.2,0.3l-3.9,2.4C-1309.4,254.6-1309.4,254.6-1309.5,254.6z
		 M-1311.4,251.9l2,1.8l3.5-2.2c0-0.5-0.1-0.9-0.4-1.2c-0.4-0.4-1.1-0.4-1.3-0.4L-1311.4,251.9z"/>
</g>
<g>
	<path class="st10" d="M-1319.1,262.5l8.9-5.2c0,0,2.8,2,2.4,4.5c0,0-1.5,1.3-11.2,1"/>
	<path class="st10" d="M-1315.8,263.2c-0.9,0-2,0-3.1-0.1c-0.2,0-0.4-0.2-0.4-0.4c0,0,0,0,0,0c-0.1-0.2,0-0.4,0.1-0.5l8.9-5.2
		c0.1-0.1,0.3-0.1,0.4,0s3,2.2,2.6,4.9c0,0.1-0.1,0.2-0.1,0.2C-1307.7,262.2-1309,263.2-1315.8,263.2z M-1318.1,262.4
		c7.3,0.2,9.5-0.6,10-0.9c0.2-1.8-1.5-3.3-2.1-3.8L-1318.1,262.4z"/>
</g>
<g>
	<path class="st11" d="M-1325.3,263.3"/>
</g>
<g>
	<path class="st1" d="M-1319.9,267c0,0-0.1,0-0.1,0c-0.2-0.1-0.3-0.3-0.2-0.5l0.8-2.7c0.1-0.2,0.3-0.3,0.5-0.2
		c0.2,0.1,0.3,0.3,0.2,0.5l-0.9,2.7C-1319.6,266.9-1319.7,267-1319.9,267z"/>
</g>
<g>
	<path class="st0" d="M-1314,264.2c0,0,0.7,3.5-1.5,3.2l-0.2-3.5L-1314,264.2z"/>
	<path class="st1" d="M-1315.3,267.8c-0.1,0-0.1,0-0.2,0c-0.2,0-0.3-0.2-0.3-0.4l-0.2-3.5c0-0.1,0-0.2,0.1-0.3
		c0.1-0.1,0.2-0.1,0.3-0.1l1.7,0.3c0.1,0,0.3,0.1,0.3,0.3c0,0.2,0.4,2.2-0.5,3.2C-1314.4,267.5-1314.7,267.8-1315.3,267.8z
		 M-1315.3,264.3l0.2,2.7c0.2,0,0.3-0.1,0.5-0.2c0.5-0.5,0.4-1.7,0.3-2.3L-1315.3,264.3z"/>
</g>
<g>
	<path class="st1" d="M-1334.3,247.9c0.1,0.9-0.2,1.6-0.7,1.7c-0.4,0.1-0.9-0.6-0.9-1.5c-0.1-0.9,0.2-1.6,0.7-1.7
		C-1334.8,246.3-1334.4,247-1334.3,247.9z"/>
</g>
<text transform="matrix(1 0 0 1 -1558.4156 83.2364)" style="font-family:'UhBeeMiMiBold'; font-size:72px; letter-spacing:1;">YE LIN</text>
<text transform="matrix(1 0 0 1 -1647.6256 192.2364)" style="font-family:'UhBeeMiMiBold'; font-size:72px; letter-spacing:1;">PORTFOLIO</text>
<g>
	<path class="st12" d="M-1287.1,110.3l-0.6,1.7c-0.1,0.2-0.2,0.5-0.5,0.5c-2.2,0-4.8,1.8,1.6,1.8c0,0,3.3,0,2-1.7l-0.8-2.7
		L-1287.1,110.3z"/>
	<path class="st13" d="M-1273.7,107.6c0,0,2.4-1,2.8-2.1"/>
	<g>
		<path class="st1" d="M-1282.6,87.5c1.1,0.1,2.2,0.6,3.1,1.2c0.9,0.6,1.7,1.4,2.4,2.3c0.6,0.9,1.2,1.9,1.5,2.9
			c0.2,0.5,0.3,1.1,0.4,1.6c0.1,0.6,0.1,1.1,0.1,1.7v0c0,0,0,0.1-0.1,0.1c0,0,0,0,0,0l-0.5-1.5c-0.2-0.5-0.4-1-0.6-1.4
			c-0.5-0.9-1-1.8-1.6-2.7c-0.6-0.8-1.3-1.6-2.1-2.3C-1280.8,88.6-1281.7,88-1282.6,87.5C-1282.7,87.6-1282.7,87.5-1282.6,87.5
			C-1282.7,87.5-1282.6,87.5-1282.6,87.5L-1282.6,87.5z"/>
	</g>
	<path class="st14" d="M-1305.3,100c0,0,23.9-30.8,30.5,7.5"/>
	<line class="st14" x1="-1301.8" y1="100.8" x2="-1285.5" y2="91.5"/>
	<path class="st15" d="M-1284.9,109.5l1.8-0.7l1.1,2.8c0.1,0.2,0.3,0.2,0.4,0.4c0.7,1.9,4.1,4.4-0.2,6.3c0,0-9.6,3.2-3.1-3.9
		L-1284.9,109.5z"/>
	<line class="st14" x1="-1299.3" y1="107.1" x2="-1281.3" y2="96.9"/>
	<polyline class="st15" points="-1298.3,113.1 -1297.4,111.3 -1294.9,111.5 -1296.9,114.5 -1298.4,114.1 -1298.4,113 	"/>
	<path class="st14" d="M-1303.5,110c0,0,20.1,0.5,21.1-1.1c0,0,1.4-5.6-12-15.8"/>
	<path class="st16" d="M-1305.6,110.2"/>
	<path class="st16" d="M-1305.5,109.6"/>
	<path class="st17" d="M-1306,110.1c1.8-0.6,0.4-4.8-0.1-7.3c-0.4-2.2-0.7-4.4-1.3-6.6c-0.6-2.2-1.4-4.2-2.4-6.2
		c-1.5-3.2-3.4-5.1-6.7-6.2c-3.1-1-5.7,0.9-6,4.3c-0.4,4.7,1.9,11.2,3.8,15.4c2.3,5.1,7.2,8.5,12.8,6.6"/>
	<path class="st15" d="M-1299.3,113.8c0,0-14.3,2.7-3,4.6c0,0,9.5,1.2,7.8-7.5"/>
	<path class="st14" d="M-1299.4,113.6c0,0-15.5,2.9-3.2,5c0,0,10.3,1.3,8.5-8.1"/>
	<line class="st14" x1="-1285.2" y1="110.4" x2="-1284.8" y2="114.4"/>
	<line class="st14" x1="-1282.6" y1="109.4" x2="-1281.1" y2="112.7"/>
	<path class="st14" d="M-1281,112.8c0,0,5.9,3.2-1.7,6c0,0-8.5,1.9-2.2-4.3"/>
	<path class="st5" d="M-1309.1,96.8c-0.3,1.2-1.6,1.9-2.8,1.6c-1.2-0.3-1.9-1.6-1.6-2.8c0.3-1.2,1.6-1.9,2.8-1.6
		C-1309.5,94.3-1308.8,95.5-1309.1,96.8z"/>
	<path class="st18" d="M-1319.9,99.8c0,0,4.9,4,8.6-3.1"/>
	<path class="st19" d="M-1282.2,109c0,0,11.7,2.7,12.8-5.3l-4.2,2.7"/>
	<path class="st20" d="M-1279.6,97.7l-4.6,2.5c0,0,3.2,4.3,2.9,5.8c0,0,3.8,0.9,4.2,0.2C-1277.1,106.2-1278.9,97.9-1279.6,97.7z"/>
	<path class="st21" d="M-1280.4,96.5"/>
	<path class="st20" d="M-1293.1,92.2c0,0,1.6,0.8,1.8,1.1l4.3-2.4c0,0,0.3-0.8-2.1-0.4L-1293.1,92.2z"/>
	<path class="st20" d="M-1301.6,102.5c0,0-0.8,1.5-0.3,2.3c0.4,0.7,2.1,0.7,2.2,0.9l10.1-5.7c0,0-1.3-1.7-3.1-2.7L-1301.6,102.5z"/>
	<path class="st13" d="M-1298.1,110.5"/>
	<path class="st22" d="M-1296.6,94.2c0,0,1,0.2,1.4,1.1l-6.7,3.8C-1301.8,99.2-1297.5,94-1296.6,94.2z"/>
	<path class="st22" d="M-1284.4,92.6c0,0,2.9-0.3,2.6,2.7l-4.8,3l-3.1-2.9L-1284.4,92.6z"/>
	<path class="st22" d="M-1298.3,108.5l11-6.4c0,0,3.4,2.5,2.9,5.5c0,0-1.9,1.6-13.8,1.2"/>
	<path class="st17" d="M-1306,109.4"/>
	<line class="st14" x1="-1298.3" y1="110.1" x2="-1299.4" y2="113.5"/>
	<path class="st12" d="M-1292.1,110.5c0,0,0.8,4.2-1.8,4l-0.3-4.4L-1292.1,110.5z"/>
	<path class="st1" d="M-1317.1,90.5c0.1,1.1-0.3,2-0.8,2.1c-0.5,0.1-1.1-0.7-1.1-1.8c-0.1-1.1,0.3-2,0.8-2.1
		S-1317.2,89.4-1317.1,90.5z"/>
</g>
<g>
	<path class="st23" d="M-134.7,522.3l-0.4,1.3c-0.1,0.2-0.2,0.3-0.4,0.3c-1.7,0-3.7,1.4,1.2,1.4c0,0,2.5,0,1.5-1.3l-0.6-2
		L-134.7,522.3z"/>
	<path class="st24" d="M-124.5,520.3c0,0,1.8-0.7,2.2-1.6"/>
	<g>
		<path class="st1" d="M-131.3,504.9c0.9,0.1,1.7,0.4,2.4,0.9c0.7,0.5,1.3,1.1,1.9,1.8c0.5,0.7,0.9,1.5,1.1,2.3
			c0.1,0.4,0.2,0.8,0.3,1.2c0,0.4,0.1,0.8,0,1.3v0c0,0,0,0,0,0c0,0,0,0,0,0c-0.2-0.8-0.5-1.5-0.9-2.2c-0.4-0.7-0.8-1.4-1.2-2.1
			C-128.7,506.8-129.9,505.6-131.3,504.9C-131.3,505-131.3,504.9-131.3,504.9C-131.3,504.9-131.3,504.9-131.3,504.9L-131.3,504.9z"
			/>
	</g>
	<path class="st25" d="M-148.3,514.2c0,0,18-23.3,23,5.9"/>
	<line class="st25" x1="-145.9" y1="515" x2="-133.5" y2="507.9"/>
	<path class="st26" d="M-132.9,522.1l1.6-0.1l0.5,1.6c0,0.1,0.2,0.2,0.3,0.3c0.5,1.4,3.1,3.4-0.1,4.8c0,0-7.3,2.4-2.4-3
		L-132.9,522.1z"/>
	<line class="st25" x1="-144" y1="519.9" x2="-130.3" y2="512.1"/>
	<polyline class="st26" points="-143.2,524.4 -142.6,523.1 -140.7,523.2 -142.2,525.5 -143.3,525.2 -143.4,524.4 	"/>
	<path class="st25" d="M-147.2,522.1c0,0,15.3,0.4,16.1-0.8c0,0,1.1-4.3-9.2-12"/>
	<path class="st27" d="M-148.8,522.2"/>
	<path class="st27" d="M-148.7,521.8"/>
	<path class="st28" d="M-149.1,522.2c1.4-0.4,0.3-3.7,0-5.6c-0.3-1.7-0.5-3.4-1-5c-0.5-1.6-1.1-3.2-1.8-4.8
		c-1.1-2.4-2.6-3.9-5.1-4.7c-2.4-0.8-4.4,0.7-4.6,3.3c-0.3,3.5,1.4,8.5,2.9,11.7C-157,521-153.3,523.6-149.1,522.2"/>
	<path class="st26" d="M-144,524.9c0,0-10.9,2-2.2,3.5c0,0,7.2,0.9,6-5.7"/>
	<path class="st25" d="M-144.1,524.8c0,0-11.8,2.2-2.4,3.8c0,0,7.8,1,6.4-6.2"/>
	<line class="st25" x1="-133.2" y1="522.4" x2="-133" y2="525.4"/>
	<line class="st25" x1="-131.3" y1="521.6" x2="-130.2" y2="524.1"/>
	<path class="st25" d="M-130.1,524.2c0,0,4.5,2.5-1.3,4.6c0,0-6.5,1.5-1.7-3.2"/>
	<path class="st5" d="M-151.5,512c-0.3,0.9-1.2,1.5-2.2,1.2c-0.9-0.3-1.5-1.2-1.2-2.2c0.3-0.9,1.2-1.5,2.2-1.2
		C-151.8,510.1-151.2,511-151.5,512z"/>
	<path class="st29" d="M-159.7,514.3c0,0,3.8,3,6.6-2.4"/>
	<path class="st25" d="M-131,521.3c0,0,8.9,2.1,9.8-4l-3.2,2.1"/>
	<path class="st30" d="M-129,512.7l-3.5,1.9c0,0,2.4,3.2,2.2,4.5c0,0,2.9,0.7,3.2,0.2C-127.1,519.2-128.5,512.9-129,512.7z"/>
	<path class="st31" d="M-129.6,511.8"/>
	<path class="st30" d="M-139.3,508.5c0,0,1.2,0.6,1.3,0.8l3.3-1.9c0,0,0.3-0.6-1.6-0.3L-139.3,508.5z"/>
	<path class="st30" d="M-145.7,516.3c0,0-0.6,1.2-0.2,1.7c0.3,0.6,1.6,0.5,1.7,0.6l7.7-4.3c0,0-1-1.3-2.4-2L-145.7,516.3z"/>
	<path class="st24" d="M-143.1,522.5"/>
	<path class="st32" d="M-141.9,510c0,0,0.8,0.1,1.1,0.8l-5.1,2.9C-145.9,513.8-142.7,509.9-141.9,510z"/>
	<path class="st32" d="M-132.7,508.8c0,0,2.2-0.2,2,2.1l-3.7,2.3l-2.4-2.2L-132.7,508.8z"/>
	<path class="st32" d="M-143.3,520.9l8.4-4.9c0,0,2.6,1.9,2.2,4.2c0,0-1.4,1.2-10.5,0.9"/>
	<path class="st28" d="M-149.1,521.6"/>
	<line class="st25" x1="-143.3" y1="522.2" x2="-144.1" y2="524.7"/>
	<path class="st23" d="M-138.6,522.5c0,0,0.6,3.2-1.4,3l-0.2-3.3L-138.6,522.5z"/>
	<path class="st1" d="M-157.6,507.2c0.1,0.8-0.2,1.5-0.6,1.6c-0.4,0.1-0.8-0.6-0.9-1.4c-0.1-0.8,0.2-1.5,0.6-1.6
		C-158,505.7-157.6,506.3-157.6,507.2z"/>
</g>
<g>
	<path class="st23" d="M44.3,30.2L43.7,32c-0.1,0.2-0.2,0.5-0.5,0.5c-2.3,0-5,1.9,1.6,1.9c0,0,3.5,0,2-1.8L46,29.8L44.3,30.2z"/>
	<path class="st24" d="M58.2,27.4c0,0,2.5-1,3-2.2"/>
	<g>
		<path class="st1" d="M48.9,6.5c1.2,0.1,2.3,0.5,3.3,1.2c1,0.6,1.8,1.5,2.5,2.4c0.7,1,1.2,2,1.6,3.1c0.2,0.5,0.3,1.1,0.4,1.7
			c0,0.6,0.1,1.1,0.1,1.7v0c0,0,0,0.1-0.1,0.1c0,0,0,0-0.1,0c-0.3-1-0.7-2.1-1.2-3c-0.5-1-1-1.9-1.7-2.8c-1.3-1.7-2.9-3.3-4.9-4.2
			C48.8,6.6,48.8,6.6,48.9,6.5C48.8,6.5,48.9,6.5,48.9,6.5L48.9,6.5z"/>
	</g>
	<path class="st25" d="M25.7,19.2c0,0,24.5-31.7,31.3,8.1"/>
	<line class="st25" x1="29" y1="20.3" x2="45.9" y2="10.7"/>
	<path class="st26" d="M46.7,29.9l2.2-0.2l0.7,2.2c0.1,0.2,0.3,0.2,0.4,0.4c0.7,1.9,4.3,4.6-0.2,6.5c0,0-10,3.3-3.2-4.1L46.7,29.9z"
		/>
	<line class="st25" x1="31.5" y1="26.9" x2="50.2" y2="16.3"/>
	<polyline class="st26" points="32.6,33.1 33.5,31.3 36.1,31.4 34,34.6 32.5,34.2 32.5,33.1 	"/>
	<path class="st25" d="M27.2,29.9c0,0,20.8,0.5,21.9-1.1c0,0,1.5-5.8-12.5-16.4"/>
	<path class="st27" d="M25.1,30.1"/>
	<path class="st27" d="M25.2,29.5"/>
	<path class="st28" d="M24.6,30c1.9-0.6,0.4-5-0.1-7.6c-0.4-2.3-0.7-4.6-1.3-6.8s-1.5-4.4-2.5-6.5c-1.6-3.3-3.5-5.3-6.9-6.4
		c-3.2-1.1-5.9,1-6.2,4.5c-0.4,4.8,2,11.6,3.9,16C13.9,28.5,19,32,24.7,30"/>
	<path class="st26" d="M31.5,33.8c0,0-14.8,2.8-3.1,4.8c0,0,9.8,1.3,8.1-7.8"/>
	<path class="st25" d="M31.4,33.7c0,0-16,3-3.3,5.2c0,0,10.6,1.4,8.8-8.4"/>
	<line class="st25" x1="46.2" y1="30.3" x2="46.5" y2="34.5"/>
	<line class="st25" x1="48.9" y1="29.3" x2="50.4" y2="32.7"/>
	<path class="st25" d="M50.5,32.8c0,0,6.2,3.3-1.8,6.2c0,0-8.8,2-2.3-4.4"/>
	<path class="st5" d="M21.4,16.2c-0.4,1.3-1.7,2-2.9,1.6c-1.3-0.4-2-1.7-1.6-3c0.4-1.3,1.7-2,2.9-1.6C21,13.6,21.7,14.9,21.4,16.2z"
		/>
	<path class="st29" d="M10.2,19.4c0,0,5.1,4.2,8.9-3.2"/>
	<path class="st25" d="M49.2,28.9c0,0,12.1,2.8,13.3-5.5l-4.3,2.8"/>
	<path class="st30" d="M52,17.1l-4.8,2.6c0,0,3.3,4.4,3,6.1c0,0,4,1,4.4,0.2C54.6,26,52.7,17.4,52,17.1z"/>
	<path class="st31" d="M51.2,15.9"/>
	<path class="st30" d="M37.9,11.4c0,0,1.6,0.8,1.8,1.1l4.4-2.5c0,0,0.4-0.8-2.2-0.4L37.9,11.4z"/>
	<path class="st30" d="M29.2,22.1c0,0-0.8,1.6-0.3,2.4c0.4,0.8,2.2,0.7,2.3,0.9l10.5-5.9c0,0-1.3-1.8-3.2-2.8L29.2,22.1z"/>
	<path class="st24" d="M32.8,30.4"/>
	<path class="st32" d="M34.4,13.5c0,0,1.1,0.2,1.5,1.1l-6.9,4C28.9,18.7,33.4,13.3,34.4,13.5z"/>
	<path class="st32" d="M47,11.8c0,0,3-0.3,2.7,2.8l-5,3.1l-3.3-3L47,11.8z"/>
	<path class="st32" d="M32.6,28.3l11.4-6.7c0,0,3.6,2.6,3.1,5.7c0,0-1.9,1.7-14.3,1.2"/>
	<path class="st28" d="M24.6,29.3"/>
	<line class="st25" x1="32.6" y1="30" x2="31.5" y2="33.5"/>
	<path class="st23" d="M39,30.4c0,0,0.8,4.4-1.9,4.1L36.8,30L39,30.4z"/>
	<path class="st1" d="M13.1,9.6c0.1,1.1-0.3,2.1-0.9,2.2c-0.6,0.1-1.1-0.8-1.2-1.9c-0.1-1.1,0.3-2.1,0.9-2.2
		C12.5,7.7,13,8.5,13.1,9.6z"/>
</g>
<path d="M-1001.5,58.7h1.8c0.8,0.1,1.2,0.5,1.2,1.2v0.6c0,2.4-5.2,10.1-15.7,23v0.6c0,5.8,0.4,12.3,1.2,19.3c-0.4,1.6-1.4,2.4-3,2.4
	c-2.4,0-3.6-7.2-3.6-21.7c-13.3-10.4-19.9-17.3-19.9-20.6v-0.6c0.1-0.8,0.5-1.2,1.2-1.2h2.4c10.7,11.3,16.9,16.9,18.7,16.9
	C-1007.2,65.3-1002,58.7-1001.5,58.7z"/>
<path d="M-964.2,53.2h1.2c0.6,0,1.4,0.8,2.4,2.4c0,2.4-4.8,3.6-14.5,3.6c-5.8,1.2-9.6,2.2-11.5,3c0.4,4,0.6,7.1,0.6,9.1v3
	c0.1,2,0.5,3,1.2,3c4,0,12.2-0.2,24.8-0.6c0.8,1.6,1.4,2.4,1.8,2.4c-0.5,2-2.1,3-4.8,3c-3.6,0-10.7,0.2-21.2,0.6l-0.6,1.2
	c0,2.3,0.8,7.1,2.4,14.5c4.9,0,13.9-0.4,27.2-1.2l1.8,2.4c0,2.4-5.4,3.6-16.3,3.6c-5.7,0.4-10.5,0.6-14.5,0.6
	c-3.8,0-6.2-13.1-7.2-39.3v-5.5C-991.4,56.7-982.4,54.7-964.2,53.2z"/>
<path d="M-920,58.1c2,0,3,5.6,3,16.9c0.8,7.3,1.2,15.1,1.2,23.6c0.8,0.1,1.2,0.6,1.2,1.2l32.6-1.2c0.8,1.6,1.4,2.4,1.8,2.4
	c0,1.1-1,2.1-3,3c-12.5,0.4-22.3,0.6-29.6,0.6h-3.6c-2.8,0-4.2-2.4-4.2-7.2l-2.4-36.2C-923,60-922,59-920,58.1z"/>
<path d="M-856.7,54.4c2,0.7,3,1.7,3,3c-0.4,1.6-1.6,2.4-3.6,2.4h-2.4c0,0.8-0.2,1.2-0.6,1.2l0.6,4.2c0.6,23,1.6,34.4,3,34.4h6
	c0.6,0,1.2,0.6,1.8,1.8v1.2c0,1.6-3.4,2.4-10.3,2.4h-6.6l-3-0.6V101c2.6-0.8,4.4-1.2,5.5-1.2c-1.2-20.3-1.8-33.2-1.8-38.7
	c-5.2-0.4-7.8-1.2-7.8-2.4v-1.2C-873,55.9-867.6,54.9-856.7,54.4z"/>
<path d="M-801.9,64.7c2,0,3,2.4,3,7.2v30.8c-0.3,4-1.3,6-3,6c-6.3-3.2-17.5-14.5-33.8-33.8h-0.6v0.6c0,7,0.6,18.3,1.8,33.9l-1.2,0.6
	h-1.8c-2.8,0-4.2-13.7-4.2-41.1c0.3-2.4,1.5-3.6,3.6-3.6c1.1,0,9.1,8.9,24.2,26.6c4.7,4.5,7.7,7.2,9,7.9h0.6V66.5
	C-804.3,65.9-803.5,65.3-801.9,64.7z"/>
<path d="M-1114.9,161.9c10,0,16.8,4.4,20.6,13.3c0.8,3.4,1.2,5.7,1.2,6.6c0,10.2-5.8,17.2-17.5,21.2l-10.3,1.8
	c0.8,5.2,1.2,10.1,1.2,14.5l-1.2,0.6h-1.8c-1.6,0-2.8-5.6-3.6-16.9c-0.3,0-0.7-0.6-1.2-1.8l0.6-1.2c-1.2-12.7-1.8-22.4-1.8-29v-1.8
	c0.9-4.8,4.9-7.2,12.1-7.2L-1114.9,161.9L-1114.9,161.9z M-1124,172.1c0.4,6.1,1.2,15,2.4,26.6h2.4c10,0,16.5-3.8,19.3-11.5
	c0.8-1.6,1.2-3.8,1.2-6.6c0-6.8-4.6-11.2-13.9-13.3h-5.4C-1122,167.3-1124,168.9-1124,172.1z"/>
<path d="M-1062.5,159.4c11.8,0,19,6.2,21.8,18.7v9.1c0,13.7-9.1,21.8-27.2,24.2c-12.1-2.6-18.1-9.8-18.1-21.8v-3.6
	c0-13.3,6.6-22,19.9-26C-1065.9,160.1-1064.7,159.9-1062.5,159.4z M-1081.2,187.2c1.4,12.5,6,18.7,13.9,18.7
	c14.5-1.6,21.8-8.8,21.8-21.8v-0.6c0-12.5-6.1-18.7-18.1-18.7c-4.6,0-9.3,3.2-13.9,9.7C-1079.3,176.6-1080.5,180.8-1081.2,187.2z"/>
<path d="M-1019.8,158.8c12.3,0,20,6.2,23,18.7v3c0,9.3-6,15.9-18.1,19.9h-0.6v1.2c9.3,2.9,13.9,4.9,13.9,6.1v1.8
	c0,0.8-0.4,1.2-1.2,1.2h-1.2c-2.2,0-9.5-2.6-21.8-7.8v0.6c0.4,2.9,0.6,5.3,0.6,7.2c-0.4,1.3-1.2,2.1-2.4,2.4
	c-2.8,0-4.2-6.6-4.2-19.9c-0.7,0-1.3-9.7-1.8-29C-1033.7,160.7-1029.1,158.8-1019.8,158.8z M-1028.2,166.7c0,10.4,0.6,20.2,1.8,29.6
	h2.4c10.2,0,17.3-3.8,21.2-11.5c0.4-2.2,0.6-4,0.6-5.4v-0.6c0-8.2-5.8-13.1-17.5-14.5C-1025.4,164.3-1028.2,165.1-1028.2,166.7z"/>
<path d="M-940.8,163.7c1.6,0.6,2.4,1.2,2.4,1.8v1.8c0,0.6-0.6,1.2-1.8,1.8h-13.9l-6,0.6v5.4c0,5.8,1,18.7,3,38.7l-1.8,1.2h-1.8
	c-2,0-3.6-14.3-4.8-42.9v-1.2c0-0.8-0.4-1.2-1.2-1.2c-10.6,0.4-17.8,0.6-21.8,0.6l-1.2-1.8v-1.8
	C-989.8,165.1-973.5,164.1-940.8,163.7z"/>
<path d="M-899.3,158.2c2.4,0.4,3.6,1,3.6,1.8v1.8c0,0.6-0.6,1.2-1.8,1.8h-1.2c-18.1,0.6-27.2,2-27.2,4.2v4.2c0,5.9,0.4,12.5,1.2,20
	c6,0,14.3-0.2,24.8-0.6c1.6,0.6,2.4,1.2,2.4,1.8v1.8c-0.3,1.2-1.9,1.8-4.9,1.8c-12.1,0.4-19.1,0.6-21.2,0.6v0.6c0,3.8,1,8.8,3,15.1
	c0,0.6-0.8,1.6-2.4,3c-4.3,0-7.2-15.7-8.5-47.1c0-6,4-9,12.1-9C-910.8,158.8-904.2,158.2-899.3,158.2z"/>
<path d="M-865,159.4c11.8,0,19,6.2,21.8,18.7v9.1c0,13.7-9.1,21.8-27.2,24.2c-12.1-2.6-18.1-9.8-18.1-21.8v-3.6
	c0-13.3,6.6-22,19.9-26C-868.4,160.1-867.2,159.9-865,159.4z M-883.7,187.2c1.4,12.5,6,18.7,13.9,18.7c14.5-1.6,21.8-8.8,21.8-21.8
	v-0.6c0-12.5-6-18.7-18.1-18.7c-4.6,0-9.3,3.2-13.9,9.7C-881.8,176.6-883,180.8-883.7,187.2z"/>
<path d="M-833.2,163.1c2,0,3,5.6,3,16.9c0.8,7.3,1.2,15.1,1.2,23.6c0.8,0.1,1.2,0.6,1.2,1.2l32.6-1.2c0.8,1.6,1.4,2.4,1.8,2.4
	c0,1.1-1,2.1-3,3c-12.5,0.4-22.3,0.6-29.6,0.6h-3.6c-2.8,0-4.2-2.4-4.2-7.2l-2.4-36.2C-836.2,165-835.2,164-833.2,163.1z"/>
<path d="M-769.9,159.4c2,0.7,3,1.7,3,3c-0.4,1.6-1.6,2.4-3.6,2.4h-2.4c0,0.8-0.2,1.2-0.6,1.2l0.6,4.2c0.6,23,1.6,34.4,3,34.4h6
	c0.6,0,1.2,0.6,1.8,1.8v1.2c0,1.6-3.4,2.4-10.3,2.4h-6.6l-3-0.6V206c2.6-0.8,4.4-1.2,5.5-1.2c-1.2-20.3-1.8-33.2-1.8-38.7
	c-5.2-0.4-7.8-1.2-7.8-2.4v-1.2C-786.2,160.9-780.8,159.9-769.9,159.4z"/>
<path d="M-731.4,159.4c11.8,0,19,6.2,21.8,18.7v9.1c0,13.7-9.1,21.8-27.2,24.2c-12.1-2.6-18.1-9.8-18.1-21.8v-3.6
	c0-13.3,6.6-22,19.9-26C-734.7,160.1-733.5,159.9-731.4,159.4z M-750.1,187.2c1.4,12.5,6,18.7,13.9,18.7
	c14.5-1.6,21.8-8.8,21.8-21.8v-0.6c0-12.5-6-18.7-18.1-18.7c-4.6,0-9.3,3.2-13.9,9.7C-748.2,176.6-749.4,180.8-750.1,187.2z"/>
</svg>
