<?xml version="1.0" encoding="utf-8"?>
<!-- Generator: Adobe Illustrator 26.2.0, SVG Export Plug-In . SVG Version: 6.00 Build 0)  -->
<svg version="1.1" id="Layer_1" xmlns="http://www.w3.org/2000/svg" xmlns:xlink="http://www.w3.org/1999/xlink" x="0px" y="0px"
	 viewBox="0 0 500 300" style="enable-background:new 0 0 500 300;" xml:space="preserve">
<style type="text/css">
	.st0{fill:#EEF1B7;}
	.st1{fill:#231F20;}
	.st2{fill:#EDF0B6;}
	.st3{fill:none;stroke:#006838;stroke-width:0.5;stroke-linecap:round;stroke-linejoin:round;stroke-miterlimit:10;}
	.st4{fill:#E6EEB7;}
	.st5{fill:#F7941D;}
	.st6{fill:#91D4D1;}
	.st7{fill:#91D3CF;}
	.st8{fill:#00A651;stroke:#231F20;stroke-width:0.5;stroke-linecap:round;stroke-linejoin:round;stroke-miterlimit:10;}
	.st9{fill:#EEF1B7;stroke:#EDF0B6;stroke-width:0.5;stroke-linecap:round;stroke-linejoin:round;stroke-miterlimit:10;}
	.st10{fill:#43A347;}
	.st11{fill:#E6EEB7;stroke:#231F20;stroke-width:0.5;stroke-miterlimit:10;}
	.st12{fill:#EEF1B7;stroke:#231F20;stroke-linecap:round;stroke-linejoin:round;stroke-miterlimit:10;}
	.st13{fill:#EEF1B7;stroke:#EDF0B6;stroke-linecap:round;stroke-linejoin:round;stroke-miterlimit:10;}
	.st14{fill:none;stroke:#231F20;stroke-linecap:round;stroke-linejoin:round;stroke-miterlimit:10;}
	.st15{fill:#EEF1B7;stroke:#EDF0B6;stroke-miterlimit:10;}
	.st16{fill:none;stroke:#006838;stroke-linecap:round;stroke-linejoin:round;stroke-miterlimit:10;}
	.st17{fill:#E6EEB7;stroke:#231F20;stroke-miterlimit:10;}
	.st18{fill:none;stroke:#231F20;stroke-linecap:round;stroke-miterlimit:10;}
	.st19{fill:none;stroke:#231F20;stroke-linejoin:round;stroke-miterlimit:10;}
	.st20{fill:#91D4D1;stroke:#91D3CF;stroke-linecap:round;stroke-linejoin:round;stroke-miterlimit:10;}
	.st21{fill:#00A651;stroke:#231F20;stroke-linecap:round;stroke-linejoin:round;stroke-miterlimit:10;}
	.st22{fill:#43A347;stroke:#43A347;stroke-linecap:round;stroke-linejoin:round;stroke-miterlimit:10;}
	.st23{fill:#EEF1B7;stroke:#231F20;stroke-width:0.9;stroke-linecap:round;stroke-linejoin:round;stroke-miterlimit:10;}
	.st24{fill:#EEF1B7;stroke:#EDF0B6;stroke-width:0.9;stroke-linecap:round;stroke-linejoin:round;stroke-miterlimit:10;}
	.st25{fill:none;stroke:#231F20;stroke-width:0.9;stroke-linecap:round;stroke-linejoin:round;stroke-miterlimit:10;}
	.st26{fill:#EEF1B7;stroke:#EDF0B6;stroke-width:0.9;stroke-miterlimit:10;}
	.st27{fill:none;stroke:#006838;stroke-width:0.9;stroke-linecap:round;stroke-linejoin:round;stroke-miterlimit:10;}
	.st28{fill:#E6EEB7;stroke:#231F20;stroke-width:0.9;stroke-miterlimit:10;}
	.st29{fill:none;stroke:#231F20;stroke-width:0.9;stroke-linecap:round;stroke-miterlimit:10;}
	.st30{fill:#91D4D1;stroke:#91D3CF;stroke-width:0.9;stroke-linecap:round;stroke-linejoin:round;stroke-miterlimit:10;}
	.st31{fill:#00A651;stroke:#231F20;stroke-width:0.9;stroke-linecap:round;stroke-linejoin:round;stroke-miterlimit:10;}
	.st32{fill:#43A347;stroke:#43A347;stroke-width:0.9;stroke-linecap:round;stroke-linejoin:round;stroke-miterlimit:10;}
</style>
<image style="overflow:visible;enable-background:new    ;" width="500" height="430" xlink:href="94591C77.png"  transform="matrix(1 0 0 1 -1067.3617 -106.9468)">
</image>
<path d="M803.5,61.8h1.8c0.8,0.1,1.2,0.5,1.2,1.2v0.6c0,2.4-5.2,10.1-15.7,23v0.6c0,5.8,0.4,12.3,1.2,19.3c-0.4,1.6-1.4,2.4-3,2.4
	c-2.4,0-3.6-7.2-3.6-21.7c-13.3-10.4-19.9-17.3-19.9-20.6V66c0.1-0.8,0.5-1.2,1.2-1.2h2.4c10.7,11.3,16.9,16.9,18.7,16.9
	C797.8,68.4,803,61.8,803.5,61.8z"/>
<path d="M840.8,56.3h1.2c0.6,0,1.4,0.8,2.4,2.4c0,2.4-4.8,3.6-14.5,3.6c-5.8,1.2-9.6,2.2-11.5,3c0.4,4,0.6,7.1,0.6,9.1v3
	c0.1,2,0.5,3,1.2,3c4,0,12.2-0.2,24.8-0.6c0.8,1.6,1.4,2.4,1.8,2.4c-0.5,2-2.1,3-4.8,3c-3.6,0-10.7,0.2-21.2,0.6l-0.6,1.2
	c0,2.3,0.8,7.1,2.4,14.5c4.9,0,13.9-0.4,27.2-1.2l1.8,2.4c0,2.4-5.4,3.6-16.3,3.6c-5.7,0.4-10.5,0.6-14.5,0.6
	c-3.8,0-6.2-13.1-7.2-39.3v-5.5C813.6,59.8,822.6,57.8,840.8,56.3z"/>
<path d="M885,61.2c2,0,3,5.6,3,16.9c0.8,7.3,1.2,15.1,1.2,23.6c0.8,0.1,1.2,0.6,1.2,1.2l32.6-1.2c0.8,1.6,1.4,2.4,1.8,2.4
	c0,1.1-1,2.1-3,3c-12.5,0.4-22.3,0.6-29.6,0.6h-3.6c-2.8,0-4.2-2.4-4.2-7.2L882,64.2C882,63.1,883,62.1,885,61.2z"/>
<path d="M948.3,57.5c2,0.7,3,1.7,3,3c-0.4,1.6-1.6,2.4-3.6,2.4h-2.4c0,0.8-0.2,1.2-0.6,1.2l0.6,4.2c0.6,23,1.6,34.4,3,34.4h6
	c0.6,0,1.2,0.6,1.8,1.8v1.2c0,1.6-3.4,2.4-10.3,2.4h-6.6l-3-0.6v-3.6c2.6-0.8,4.4-1.2,5.5-1.2c-1.2-20.3-1.8-33.2-1.8-38.7
	c-5.2-0.4-7.8-1.2-7.8-2.4v-1.2C932,59,937.4,58,948.3,57.5z"/>
<path d="M1003.1,67.8c2,0,3,2.4,3,7.2v30.8c-0.3,4-1.3,6-3,6c-6.3-3.2-17.5-14.5-33.8-33.8h-0.6v0.6c0,7,0.6,18.3,1.8,33.9l-1.2,0.6
	h-1.8c-2.8,0-4.2-13.7-4.2-41.1c0.3-2.4,1.5-3.6,3.6-3.6c1.1,0,9.1,8.9,24.2,26.6c4.7,4.5,7.7,7.2,9,7.9h0.6V69.6
	C1000.7,69,1001.5,68.4,1003.1,67.8z"/>
<path d="M690.1,165c10,0,16.8,4.4,20.6,13.3c0.8,3.4,1.2,5.7,1.2,6.6c0,10.2-5.8,17.2-17.5,21.2l-10.3,1.8
	c0.8,5.2,1.2,10.1,1.2,14.5L684,223h-1.8c-1.6,0-2.8-5.6-3.6-16.9c-0.3,0-0.7-0.6-1.2-1.8l0.6-1.2c-1.2-12.7-1.8-22.4-1.8-29v-1.8
	c0.9-4.8,4.9-7.2,12.1-7.2L690.1,165L690.1,165z M681,175.2c0.4,6.1,1.2,15,2.4,26.6h2.4c10,0,16.5-3.8,19.3-11.5
	c0.8-1.6,1.2-3.8,1.2-6.6c0-6.8-4.6-11.2-13.9-13.3H687C683,170.4,681,172,681,175.2z"/>
<path d="M742.5,162.5c11.8,0,19,6.2,21.8,18.7v9.1c0,13.7-9.1,21.8-27.2,24.2c-12.1-2.6-18.1-9.8-18.1-21.8v-3.6
	c0-13.3,6.6-22,19.9-26C739.1,163.2,740.3,163,742.5,162.5z M723.8,190.4c1.4,12.5,6,18.7,13.9,18.7c14.5-1.6,21.8-8.8,21.8-21.8
	v-0.6c0-12.5-6-18.7-18.1-18.7c-4.6,0-9.3,3.2-13.9,9.7C725.7,179.7,724.5,183.9,723.8,190.4z"/>
<path d="M785.2,161.9c12.3,0,20,6.2,23,18.7v3c0,9.3-6,15.9-18.1,19.9h-0.6v1.2c9.3,2.9,13.9,4.9,13.9,6.1v1.8
	c0,0.8-0.4,1.2-1.2,1.2h-1.2c-2.2,0-9.5-2.6-21.8-7.8v0.6c0.4,2.9,0.6,5.3,0.6,7.2c-0.4,1.3-1.2,2.1-2.4,2.4
	c-2.8,0-4.2-6.6-4.2-19.9c-0.7,0-1.3-9.7-1.8-29C771.3,163.8,775.9,161.9,785.2,161.9z M776.8,169.8c0,10.4,0.6,20.2,1.8,29.6h2.4
	c10.2,0,17.3-3.8,21.2-11.5c0.4-2.2,0.6-4,0.6-5.4v-0.6c0-8.2-5.8-13.1-17.5-14.5C779.6,167.4,776.8,168.2,776.8,169.8z"/>
<path d="M864.2,166.8c1.6,0.6,2.4,1.2,2.4,1.8v1.8c0,0.6-0.6,1.2-1.8,1.8h-13.9l-6,0.6v5.4c0,5.8,1,18.7,3,38.7l-1.8,1.2h-1.8
	c-2,0-3.6-14.3-4.8-42.9V174c0-0.8-0.4-1.2-1.2-1.2c-10.6,0.4-17.8,0.6-21.8,0.6l-1.2-1.8v-1.8C815.2,168.2,831.5,167.2,864.2,166.8
	z"/>
<path d="M905.7,161.3c2.4,0.4,3.6,1,3.6,1.8v1.8c0,0.6-0.6,1.2-1.8,1.8h-1.2c-18.1,0.6-27.2,2-27.2,4.2v4.2c0,5.9,0.4,12.5,1.2,20
	c6,0,14.3-0.2,24.8-0.6c1.6,0.6,2.4,1.2,2.4,1.8v1.8c-0.3,1.2-1.9,1.8-4.9,1.8c-12.1,0.4-19.1,0.6-21.2,0.6v0.6c0,3.8,1,8.8,3,15.1
	c0,0.6-0.8,1.6-2.4,3c-4.3,0-7.2-15.7-8.5-47.1c0-6,4-9,12.1-9C894.2,161.9,900.8,161.3,905.7,161.3z"/>
<path d="M940,162.5c11.8,0,19,6.2,21.8,18.7v9.1c0,13.7-9.1,21.8-27.2,24.2c-12.1-2.6-18.1-9.8-18.1-21.8v-3.6
	c0-13.3,6.6-22,19.9-26C936.6,163.2,937.8,163,940,162.5z M921.3,190.4c1.4,12.5,6,18.7,13.9,18.7c14.5-1.6,21.8-8.8,21.8-21.8v-0.6
	c0-12.5-6-18.7-18.1-18.7c-4.6,0-9.3,3.2-13.9,9.7C923.2,179.7,922,183.9,921.3,190.4z"/>
<path d="M971.8,166.2c2,0,3,5.6,3,16.9c0.8,7.3,1.2,15.1,1.2,23.6c0.8,0.1,1.2,0.6,1.2,1.2l32.6-1.2c0.8,1.6,1.4,2.4,1.8,2.4
	c0,1.1-1,2.1-3,3c-12.5,0.4-22.3,0.6-29.6,0.6h-3.6c-2.8,0-4.2-2.4-4.2-7.2l-2.4-36.2C968.8,168.1,969.8,167.1,971.8,166.2z"/>
<path d="M1035.1,162.5c2,0.7,3,1.7,3,3c-0.4,1.6-1.6,2.4-3.6,2.4h-2.4c0,0.8-0.2,1.2-0.6,1.2l0.6,4.2c0.6,23,1.6,34.4,3,34.4h6.1
	c0.6,0,1.2,0.6,1.8,1.8v1.2c0,1.6-3.4,2.4-10.3,2.4h-6.6l-3-0.6v-3.6c2.6-0.8,4.4-1.2,5.4-1.2c-1.2-20.3-1.8-33.2-1.8-38.7
	c-5.2-0.4-7.8-1.2-7.8-2.4v-1.2C1018.8,164,1024.2,163,1035.1,162.5z"/>
<path d="M1073.6,162.5c11.8,0,19,6.2,21.8,18.7v9.1c0,13.7-9.1,21.8-27.2,24.2c-12.1-2.6-18.1-9.8-18.1-21.8v-3.6
	c0-13.3,6.6-22,19.9-26C1070.3,163.2,1071.5,163,1073.6,162.5z M1054.9,190.4c1.4,12.5,6,18.7,13.9,18.7
	c14.5-1.6,21.8-8.8,21.8-21.8v-0.6c0-12.5-6.1-18.7-18.1-18.7c-4.6,0-9.3,3.2-13.9,9.7C1056.8,179.7,1055.6,183.9,1054.9,190.4z"/>
<g>
	<path class="st0" d="M-142.1,267.1l-0.5,1.4c-0.1,0.2-0.2,0.4-0.4,0.4c-1.8,0-3.9,1.5,1.3,1.5c0,0,2.7,0,1.6-1.4l-0.7-2.1
		L-142.1,267.1z"/>
	<path class="st1" d="M-141.7,270.7c-2.8,0-3.3-0.4-3.5-0.7c-0.1-0.2-0.1-0.4,0-0.6c0.3-0.5,1.4-0.8,2.3-0.9c0,0,0,0,0-0.1l0.5-1.4
		c0-0.1,0.1-0.2,0.3-0.2l1.4-0.4c0.2,0,0.4,0.1,0.4,0.2l0.6,2.1c0.4,0.5,0.3,0.9,0.2,1.1C-139.8,270.6-141.3,270.7-141.7,270.7
		C-141.6,270.7-141.7,270.7-141.7,270.7z M-144.5,269.6c0.2,0.1,0.9,0.3,2.9,0.3c0.6,0,1.4-0.2,1.5-0.4c0,0,0-0.2-0.2-0.4
		c0,0-0.1-0.1-0.1-0.1l-0.6-1.8l-0.9,0.2l-0.4,1.2c-0.1,0.4-0.4,0.6-0.7,0.6c0,0,0,0,0,0C-143.6,269.2-144.2,269.5-144.5,269.6z"/>
</g>
<g>
	<path class="st0" d="M-131.2,265c0,0,1.9-0.8,2.3-1.7"/>
	<path class="st2" d="M-131.2,265.3c-0.1,0-0.3-0.1-0.4-0.2c-0.1-0.2,0-0.4,0.2-0.5c0.7-0.3,1.9-0.9,2.1-1.5
		c0.1-0.2,0.3-0.3,0.5-0.2s0.3,0.3,0.2,0.5c-0.4,1.1-2.3,1.9-2.5,1.9C-131.1,265.3-131.1,265.3-131.2,265.3z"/>
</g>
<g>
	<path class="st1" d="M-138.4,248.6c0.9,0.1,1.8,0.5,2.5,1c0.8,0.5,1.4,1.2,1.9,1.9c0.5,0.7,1,1.5,1.2,2.4c0.2,0.4,0.2,0.9,0.4,1.3
		c0.1,0.4,0.1,0.9,0.1,1.3v0c0,0,0,0,0,0c0,0,0,0,0,0c-0.3-0.8-0.6-1.6-0.9-2.4c-0.4-0.8-0.8-1.5-1.3-2.2c-0.5-0.7-1.1-1.3-1.7-1.9
		C-137,249.5-137.7,249-138.4,248.6C-138.5,248.6-138.5,248.6-138.4,248.6C-138.5,248.6-138.5,248.6-138.4,248.6L-138.4,248.6z"/>
</g>
<g>
	<path class="st1" d="M-132.1,265.3c-0.2,0-0.3-0.1-0.4-0.3c-1.6-9-4.4-14.1-8.5-15.1c-7-1.8-15.5,9.1-15.6,9.2
		c-0.1,0.2-0.4,0.2-0.5,0.1c-0.2-0.1-0.2-0.4-0.1-0.5c0.4-0.5,8.9-11.3,16.4-9.5c4.4,1.1,7.5,6.4,9.1,15.8
		C-131.8,265-131.9,265.2-132.1,265.3C-132.1,265.3-132.1,265.3-132.1,265.3z"/>
</g>
<g>
	<path class="st1" d="M-154.1,259.7c-0.1,0-0.3-0.1-0.3-0.2c-0.1-0.2,0-0.4,0.1-0.5l13.3-7.6c0.2-0.1,0.4,0,0.5,0.1
		c0.1,0.2,0,0.4-0.1,0.5l-13.3,7.6C-153.9,259.7-154,259.7-154.1,259.7z"/>
</g>
<g>
	<path class="st0" d="M-140.3,266.5l1.5-0.5l0.9,2.3c0.1,0.1,0.3,0.2,0.3,0.3c0.5,1.5,3.4,3.6-0.2,5.1c0,0-7.8,2.6-2.5-3.2V266.5z"
		/>
	<path class="st2" d="M-140.7,274.6c-0.7,0-1.3-0.1-1.6-0.6c-0.5-0.7,0.1-1.9,1.7-3.7l0-4.1l2.1-0.8l1,2.7c0.1,0,0.3,0.1,0.3,0.3
		c0.1,0.3,0.4,0.7,0.6,1.1c0.6,0.8,1.2,1.8,0.9,2.8c-0.2,0.7-0.8,1.2-1.9,1.7C-138.1,274.2-139.5,274.6-140.7,274.6z M-139.9,266.7
		l0,3.9l-0.1,0.1c-2,2.2-1.8,2.8-1.7,2.9c0.3,0.5,2.4,0.2,3.8-0.3c0.8-0.4,1.3-0.8,1.4-1.2c0.2-0.6-0.3-1.4-0.8-2.1
		c-0.3-0.5-0.6-0.9-0.7-1.3c-0.1,0-0.2-0.1-0.3-0.3l-0.8-2L-139.9,266.7z"/>
</g>
<g>
	<path class="st1" d="M-152.1,264.9c-0.1,0-0.3-0.1-0.3-0.2c-0.1-0.2,0-0.4,0.1-0.5l14.6-8.3c0.2-0.1,0.4,0,0.5,0.1
		c0.1,0.2,0,0.4-0.1,0.5l-14.6,8.3C-151.9,264.9-152,264.9-152.1,264.9z"/>
</g>
<g>
	<polyline class="st0" points="-151.2,269.4 -150.5,268 -148.5,268.1 -150.1,270.5 -151.3,270.2 -151.3,269.3 	"/>
	<path class="st2" d="M-149.9,271l-1.7-0.4l-0.1-1.2l0.4,0l-0.2-0.1l0.8-1.7l2.9,0.1L-149.9,271z M-150.9,269.9l0.7,0.2l1.1-1.7
		l-1.1,0l-0.6,1.2l-0.1,0L-150.9,269.9z"/>
</g>
<g>
	<path class="st1" d="M-149.6,267.4c-2.2,0-4.3,0-5.9-0.1c-0.2,0-0.4-0.2-0.4-0.4s0.2-0.4,0.4-0.4h0c7.6,0.2,15.9,0,16.8-0.7
		c0.1-0.6,0.1-5-9.6-12.4c-0.2-0.1-0.2-0.4-0.1-0.5c0.1-0.2,0.4-0.2,0.5-0.1c11,8.3,10,13,9.9,13.2c0,0,0,0.1-0.1,0.1
		C-138.6,267.1-144.4,267.4-149.6,267.4z"/>
</g>
<g>
	<path class="st3" d="M-157.1,267"/>
</g>
<g>
	<path class="st3" d="M-157.1,266.6"/>
</g>
<g>
	<path class="st4" d="M-157.5,267c1.5-0.5,0.3-3.9,0-6c-0.3-1.8-0.5-3.6-1-5.4s-1.2-3.4-1.9-5.1c-1.2-2.6-2.7-4.1-5.4-5
		c-2.5-0.8-4.7,0.7-4.9,3.5c-0.3,3.8,1.5,9.1,3.1,12.5c1.9,4.2,5.8,7,10.4,5.4"/>
	<path class="st1" d="M-159.9,267.8c-3.7,0-6.7-2.8-8.1-6c-0.8-1.8-3.5-8.1-3.1-12.7c0.1-1.5,0.8-2.7,1.9-3.4c1-0.6,2.2-0.8,3.5-0.4
		c2.7,0.9,4.3,2.4,5.6,5.2c0.9,1.8,1.5,3.5,2,5.1c0.4,1.4,0.6,2.8,0.9,4.2c0.1,0.4,0.1,0.8,0.2,1.2c0.1,0.4,0.2,0.9,0.3,1.3
		c0.5,2.1,1,4.5-0.4,5l0,0C-158.2,267.6-159.1,267.8-159.9,267.8z M-167.3,245.7c-0.6,0-1.2,0.2-1.7,0.5c-0.9,0.6-1.4,1.6-1.6,2.9
		c-0.4,4.4,2.2,10.6,3.1,12.4c1.7,3.7,5.4,6.7,9.9,5.2l0,0c0.9-0.3,0.4-2.5,0-4.2c-0.1-0.5-0.2-1-0.3-1.4c-0.1-0.4-0.1-0.8-0.2-1.2
		c-0.2-1.4-0.4-2.8-0.8-4.1c-0.5-1.6-1.1-3.2-1.9-5c-1.2-2.6-2.8-4-5.2-4.8C-166.5,245.8-166.9,245.7-167.3,245.7z"/>
</g>
<g>
	<path class="st0" d="M-152.1,269.9c0,0-11.6,2.2-2.4,3.8c0,0,7.7,1,6.4-6.1"/>
	<path class="st2" d="M-153.5,274.1c-0.6,0-1,0-1,0c-2.7-0.5-3.9-1-3.9-1.8c0-1.4,4.4-2.4,6.3-2.7l0.1,0.7c-3.2,0.6-5.6,1.5-5.6,2
		c0,0,0.1,0.5,3.2,1.1c0,0,3.4,0.4,5.1-1.4c0.9-1,1.2-2.4,0.8-4.3l0.7-0.1c0.4,2.1,0.1,3.8-1,4.9
		C-150.1,273.9-152.2,274.1-153.5,274.1z"/>
</g>
<g>
	<path class="st1" d="M-153.7,274.3c-0.6,0-1,0-1.1-0.1c-2.9-0.5-4.2-1.1-4.2-1.9c0-1.5,4.7-2.5,6.8-2.9c0.2,0,0.4,0.1,0.4,0.3
		c0,0.2-0.1,0.4-0.3,0.4c-3.2,0.6-6.1,1.6-6.1,2.2c0,0,0,0.6,3.5,1.2c0,0,3.7,0.5,5.6-1.5c1-1,1.3-2.6,0.9-4.7
		c0-0.2,0.1-0.4,0.3-0.4s0.4,0.1,0.4,0.3c0.4,2.3,0.1,4.1-1.1,5.3C-150.1,274.1-152.4,274.3-153.7,274.3z"/>
</g>
<g>
	<path class="st1" d="M-140.3,270.8c-0.2,0-0.4-0.1-0.4-0.4l-0.3-3.3c0-0.2,0.1-0.4,0.3-0.4c0.2,0,0.4,0.1,0.4,0.3l0.3,3.3
		C-139.9,270.6-140.1,270.8-140.3,270.8C-140.3,270.8-140.3,270.8-140.3,270.8z"/>
</g>
<g>
	<path class="st1" d="M-137.3,269.4c-0.1,0-0.3-0.1-0.3-0.2l-1.2-2.6c-0.1-0.2,0-0.4,0.2-0.5c0.2-0.1,0.4,0,0.5,0.2l1.2,2.6
		c0.1,0.2,0,0.4-0.2,0.5C-137.1,269.4-137.2,269.4-137.3,269.4z"/>
</g>
<g>
	<path class="st1" d="M-140.6,274.6c-0.8,0-1.6-0.2-2-0.7c-0.4-0.8,0.2-1.9,1.9-3.6c0.1-0.1,0.4-0.1,0.5,0c0.1,0.1,0.1,0.4,0,0.5
		c-2,1.9-1.8,2.6-1.8,2.7c0.3,0.5,2,0.4,3.2,0.1c1.8-0.7,2.8-1.4,2.9-2.2c0.1-0.9-1.1-1.7-1.6-2c-0.2-0.1-0.2-0.3-0.1-0.5
		c0.1-0.2,0.3-0.2,0.5-0.1c0.1,0,2.1,1.2,2,2.7c-0.1,1.1-1.2,2.1-3.4,2.9C-138.8,274.4-139.7,274.6-140.6,274.6z"/>
</g>
<g>
	<path class="st5" d="M-160,256.1c-0.3,1-1.3,1.6-2.3,1.3c-1-0.3-1.6-1.3-1.3-2.3c0.3-1,1.3-1.6,2.3-1.3S-159.8,255.1-160,256.1z"/>
</g>
<g>
	<path class="st1" d="M-166.2,260c-1.7,0-2.9-1-2.9-1c-0.2-0.2-0.2-0.5-0.1-0.7c0.2-0.2,0.5-0.2,0.7-0.1c0,0,1.4,1.1,3,0.7
		c1.2-0.3,2.4-1.3,3.3-3.1c0.1-0.2,0.4-0.3,0.7-0.2c0.2,0.1,0.3,0.4,0.2,0.7c-1.1,2.1-2.4,3.3-4,3.6C-165.6,260-165.9,260-166.2,260
		z"/>
</g>
<g>
	<path class="st1" d="M-134.7,266.8c-1.9,0-3.4-0.3-3.5-0.4l0.2-0.7c0.1,0,5.2,1.2,8.1-0.8c0.8-0.6,1.4-1.3,1.7-2.3l-2.6,1.7
		l-0.4-0.6l3.4-2.2c0.1-0.1,0.3-0.1,0.4,0c0.1,0.1,0.2,0.2,0.2,0.4c-0.2,1.6-1,2.9-2.2,3.7C-131.1,266.5-133.1,266.8-134.7,266.8z"
		/>
</g>
<g>
	<path class="st6" d="M-136,256.9l-3.7,2c0,0,2.6,3.5,2.4,4.8c0,0,3.1,0.8,3.4,0.2C-134,263.8-135.5,257-136,256.9z"/>
	<path class="st7" d="M-134.9,264.4c-0.8,0-1.8-0.2-2.6-0.4c-0.2,0-0.3-0.2-0.3-0.4c0.1-0.8-1.3-3.2-2.3-4.5
		c-0.1-0.1-0.1-0.2-0.1-0.3s0.1-0.2,0.2-0.2l3.7-2c0.1,0,0.2-0.1,0.3,0c0.2,0.1,0.8,0.3,2.3,7.2c0,0.1,0,0.2,0,0.3
		C-133.8,264.3-134.3,264.4-134.9,264.4z M-137,263.4c1.1,0.3,2.2,0.4,2.6,0.3c-0.6-2.7-1.3-5.5-1.7-6.3l-3.1,1.7
		C-138.6,260-137.1,262.1-137,263.4z"/>
</g>
<g>
	<path class="st8" d="M-136.6,255.9"/>
</g>
<g>
	<path class="st6" d="M-147,252.4c0,0,1.3,0.7,1.4,0.9l3.5-2c0,0,0.3-0.7-1.7-0.3L-147,252.4z"/>
	<path class="st7" d="M-145.6,253.6c-0.1,0-0.2-0.1-0.3-0.1c-0.1-0.1-0.8-0.5-1.3-0.8c-0.1-0.1-0.2-0.2-0.2-0.3s0.1-0.3,0.2-0.3
		l3.2-1.4c0,0,0.1,0,0.1,0c1.1-0.2,1.8-0.1,2.1,0.2c0.2,0.2,0.1,0.4,0.1,0.6c0,0.1-0.1,0.1-0.2,0.2l-3.5,2
		C-145.5,253.6-145.6,253.6-145.6,253.6z M-146.2,252.4c0.2,0.1,0.5,0.3,0.6,0.4l2.8-1.6c-0.2,0-0.5,0-0.9,0.1L-146.2,252.4z"/>
</g>
<g>
	<path class="st6" d="M-153.9,260.8c0,0-0.6,1.2-0.3,1.9c0.4,0.6,1.7,0.6,1.8,0.7l8.2-4.6c0,0-1-1.4-2.5-2.2L-153.9,260.8z"/>
	<path class="st7" d="M-152.4,263.7c-0.1,0-0.1,0-0.2-0.1c-0.1,0-0.1,0-0.2,0c-0.5-0.1-1.4-0.2-1.7-0.8c-0.5-0.8,0.2-2.1,0.3-2.2
		c0-0.1,0.1-0.1,0.1-0.1l7.2-4.2c0.1-0.1,0.2-0.1,0.4,0c1.6,0.8,2.6,2.2,2.7,2.3c0.1,0.1,0.1,0.2,0.1,0.3s-0.1,0.2-0.2,0.2l-8.2,4.6
		C-152.2,263.7-152.3,263.7-152.4,263.7z M-153.6,261c-0.2,0.4-0.4,1.1-0.2,1.4c0.2,0.3,0.8,0.4,1.2,0.4c0.1,0,0.2,0,0.3,0l7.7-4.3
		c-0.4-0.4-1.1-1.1-1.9-1.6L-153.6,261z"/>
</g>
<g>
	<path class="st9" d="M-151.1,267.3"/>
</g>
<g>
	<path class="st10" d="M-149.8,254c0,0,0.8,0.1,1.2,0.9l-5.4,3.1C-154.1,258-150.6,253.9-149.8,254z"/>
	<path class="st10" d="M-154.1,258.4c-0.1,0-0.2,0-0.3-0.1c-0.1-0.1-0.1-0.3,0-0.5c1.6-2,3.8-4.3,4.6-4.1c0.1,0,1.1,0.2,1.4,1.1
		c0.1,0.2,0,0.4-0.2,0.5l-5.4,3.1C-154,258.4-154,258.4-154.1,258.4z M-149.9,254.4c-0.3,0.1-1.4,1-2.4,2.2l3.1-1.8
		C-149.5,254.5-149.9,254.4-149.9,254.4z"/>
</g>
<g>
	<path class="st10" d="M-139.9,252.7c0,0,2.4-0.2,2.1,2.2l-3.9,2.4l-2.6-2.4L-139.9,252.7z"/>
	<path class="st10" d="M-141.7,257.7c-0.1,0-0.2,0-0.2-0.1l-2.6-2.4c-0.1-0.1-0.1-0.2-0.1-0.3c0-0.1,0.1-0.2,0.2-0.3l4.3-2.3
		c0,0,0.1,0,0.1,0s1.2-0.1,2,0.6c0.5,0.5,0.7,1.1,0.6,2c0,0.1-0.1,0.2-0.2,0.3l-3.9,2.4C-141.6,257.7-141.6,257.7-141.7,257.7z
		 M-143.6,255.1l1.9,1.8l3.5-2.2c0-0.5-0.1-0.9-0.4-1.2c-0.4-0.4-1.1-0.4-1.3-0.4L-143.6,255.1z"/>
</g>
<g>
	<path class="st10" d="M-151.2,265.6l8.9-5.2c0,0,2.8,2,2.4,4.5c0,0-1.5,1.3-11.2,1"/>
	<path class="st10" d="M-148.1,266.3c-0.9,0-2,0-3.1-0.1c-0.2,0-0.4-0.2-0.4-0.4c0,0,0,0,0,0c-0.1-0.2,0-0.4,0.1-0.5l8.9-5.2
		c0.1-0.1,0.3-0.1,0.4,0c0.1,0.1,3,2.2,2.6,4.9c0,0.1-0.1,0.2-0.1,0.2C-139.9,265.3-141.2,266.3-148.1,266.3z M-150.3,265.5
		c7.3,0.2,9.5-0.6,10-0.9c0.2-1.8-1.5-3.3-2.1-3.8L-150.3,265.5z"/>
</g>
<g>
	<path class="st11" d="M-157.5,266.4"/>
</g>
<g>
	<path class="st1" d="M-152.1,270.1c0,0-0.1,0-0.1,0c-0.2-0.1-0.3-0.3-0.2-0.5l0.9-2.7c0.1-0.2,0.3-0.3,0.5-0.2s0.3,0.3,0.2,0.5
		l-0.9,2.7C-151.8,270-151.9,270.1-152.1,270.1z"/>
</g>
<g>
	<path class="st0" d="M-146.2,267.3c0,0,0.6,3.5-1.5,3.2l-0.2-3.5L-146.2,267.3z"/>
	<path class="st1" d="M-147.5,270.9c-0.1,0-0.1,0-0.2,0c-0.2,0-0.3-0.2-0.3-0.4l-0.2-3.5c0-0.1,0-0.2,0.1-0.3
		c0.1-0.1,0.2-0.1,0.3-0.1l1.7,0.3c0.1,0,0.3,0.1,0.3,0.3c0,0.2,0.4,2.2-0.5,3.2C-146.6,270.6-146.9,270.9-147.5,270.9z
		 M-147.5,267.4l0.2,2.7c0.2,0,0.3-0.1,0.5-0.2c0.5-0.5,0.4-1.7,0.4-2.3L-147.5,267.4z"/>
</g>
<g>
	<path class="st1" d="M-166.5,251c0.1,0.9-0.2,1.6-0.7,1.7c-0.4,0.1-0.9-0.6-0.9-1.5c-0.1-0.9,0.2-1.6,0.7-1.7
		C-167,249.4-166.6,250.1-166.5,251z"/>
</g>
<text transform="matrix(1 0 0 1 -390.6156 86.3364)" style="font-family:'UhBeeMiMiBold'; font-size:72px; letter-spacing:1;">YE LIN</text>
<text transform="matrix(1 0 0 1 -479.8256 195.3364)" style="font-family:'UhBeeMiMiBold'; font-size:72px; letter-spacing:1;">PORTFOLIO</text>
<g>
	<path class="st12" d="M-119.2,113.4l-0.6,1.7c-0.1,0.2-0.2,0.5-0.5,0.5c-2.2,0-4.8,1.8,1.6,1.8c0,0,3.3,0,2-1.7l-0.8-2.7
		L-119.2,113.4z"/>
	<path class="st13" d="M-105.8,110.7c0,0,2.4-1,2.8-2.1"/>
	<g>
		<path class="st1" d="M-114.8,90.6c1.1,0.1,2.2,0.6,3.1,1.2c0.9,0.6,1.7,1.4,2.4,2.3c0.6,0.9,1.2,1.9,1.5,2.9
			c0.2,0.5,0.3,1.1,0.4,1.6c0.1,0.6,0.1,1.1,0.1,1.7v0c0,0,0,0.1-0.1,0.1c0,0,0,0-0.1,0l-0.5-1.5c-0.2-0.5-0.4-1-0.6-1.4
			c-0.5-0.9-1-1.8-1.6-2.7c-0.6-0.8-1.3-1.6-2.1-2.3C-113,91.7-113.9,91.1-114.8,90.6C-114.9,90.7-114.9,90.6-114.8,90.6
			C-114.9,90.6-114.8,90.6-114.8,90.6L-114.8,90.6z"/>
	</g>
	<path class="st14" d="M-137.5,103.1c0,0,23.9-30.8,30.4,7.5"/>
	<line class="st14" x1="-134" y1="103.9" x2="-117.7" y2="94.6"/>
	<path class="st15" d="M-117.1,112.6l1.8-0.7l1.1,2.8c0.1,0.2,0.3,0.2,0.4,0.4c0.7,1.9,4.1,4.4-0.2,6.3c0,0-9.6,3.2-3.1-3.9
		L-117.1,112.6z"/>
	<line class="st14" x1="-131.5" y1="110.2" x2="-113.5" y2="100"/>
	<polyline class="st15" points="-130.5,116.2 -129.6,114.4 -127.1,114.6 -129.1,117.6 -130.6,117.2 -130.6,116.1 	"/>
	<path class="st14" d="M-135.7,113.1c0,0,20.1,0.5,21.1-1.1c0,0,1.4-5.6-12-15.8"/>
	<path class="st16" d="M-137.8,113.3"/>
	<path class="st16" d="M-137.7,112.7"/>
	<path class="st17" d="M-138.2,113.2c1.8-0.6,0.4-4.8-0.1-7.3c-0.4-2.2-0.7-4.4-1.3-6.6c-0.6-2.2-1.4-4.2-2.4-6.2
		c-1.5-3.2-3.4-5.1-6.7-6.2c-3.1-1-5.7,0.9-6,4.3c-0.4,4.7,1.9,11.2,3.8,15.4c2.3,5.1,7.2,8.5,12.8,6.6"/>
	<path class="st15" d="M-131.5,116.9c0,0-14.3,2.7-3,4.6c0,0,9.5,1.2,7.8-7.5"/>
	<path class="st14" d="M-131.6,116.7c0,0-15.4,2.9-3.2,5c0,0,10.3,1.3,8.5-8.1"/>
	<line class="st14" x1="-117.4" y1="113.5" x2="-117" y2="117.5"/>
	<line class="st14" x1="-114.8" y1="112.5" x2="-113.3" y2="115.8"/>
	<path class="st14" d="M-113.2,115.9c0,0,5.9,3.2-1.7,6c0,0-8.5,1.9-2.2-4.3"/>
	<path class="st5" d="M-141.3,99.8c-0.4,1.2-1.6,1.9-2.8,1.6c-1.2-0.3-1.9-1.6-1.6-2.8c0.4-1.2,1.6-1.9,2.8-1.6
		C-141.7,97.4-141,98.6-141.3,99.8z"/>
	<path class="st18" d="M-152.1,102.9c0,0,4.9,4,8.6-3.1"/>
	<path class="st19" d="M-114.4,112.1c0,0,11.7,2.7,12.8-5.3l-4.2,2.7"/>
	<path class="st20" d="M-111.8,100.8l-4.6,2.5c0,0,3.2,4.3,2.9,5.8c0,0,3.8,0.9,4.2,0.2C-109.3,109.3-111.1,101-111.8,100.8z"/>
	<path class="st21" d="M-112.6,99.6"/>
	<path class="st20" d="M-125.3,95.2c0,0,1.6,0.8,1.8,1.1l4.3-2.4c0,0,0.3-0.8-2.1-0.4L-125.3,95.2z"/>
	<path class="st20" d="M-133.8,105.6c0,0-0.8,1.5-0.3,2.3c0.4,0.7,2.1,0.7,2.2,0.9l10.1-5.7c0,0-1.3-1.7-3.1-2.7L-133.8,105.6z"/>
	<path class="st13" d="M-130.3,113.6"/>
	<path class="st22" d="M-128.8,97.3c0,0,1,0.2,1.4,1.1l-6.7,3.8C-134,102.2-129.7,97.1-128.8,97.3z"/>
	<path class="st22" d="M-116.6,95.7c0,0,2.9-0.3,2.6,2.7l-4.8,3l-3.1-2.9L-116.6,95.7z"/>
	<path class="st22" d="M-130.5,111.6l11-6.4c0,0,3.4,2.5,2.9,5.5c0,0-1.9,1.6-13.8,1.2"/>
	<path class="st17" d="M-138.2,112.5"/>
	<line class="st14" x1="-130.5" y1="113.2" x2="-131.6" y2="116.6"/>
	<path class="st12" d="M-124.3,113.6c0,0,0.8,4.2-1.8,4l-0.3-4.4L-124.3,113.6z"/>
	<path class="st1" d="M-149.3,93.6c0.1,1.1-0.3,2-0.8,2.1c-0.5,0.1-1.1-0.7-1.1-1.8c-0.1-1.1,0.3-2,0.8-2.1S-149.4,92.5-149.3,93.6z
		"/>
</g>
<g>
	<path class="st23" d="M1033.1,147.4l-0.4,1.3c-0.1,0.2-0.2,0.4-0.4,0.4c-1.7,0-3.7,1.4,1.2,1.4c0,0,2.5,0,1.5-1.3l-0.6-2
		L1033.1,147.4z"/>
	<path class="st24" d="M1043.3,145.4c0,0,1.8-0.7,2.2-1.6"/>
	<g>
		<path class="st1" d="M1036.5,130c0.9,0.1,1.7,0.4,2.4,0.9c0.7,0.5,1.3,1.1,1.9,1.8c0.5,0.7,0.9,1.5,1.1,2.3
			c0.2,0.4,0.2,0.8,0.3,1.2c0,0.4,0.1,0.8,0.1,1.3v0c0,0,0,0-0.1,0c0,0,0,0,0,0c-0.2-0.8-0.5-1.5-0.9-2.2c-0.3-0.7-0.8-1.4-1.2-2.1
			C1039.1,131.9,1037.9,130.7,1036.5,130C1036.5,130.1,1036.5,130,1036.5,130C1036.5,130,1036.5,130,1036.5,130L1036.5,130z"/>
	</g>
	<path class="st25" d="M1019.5,139.3c0,0,18-23.3,23,5.9"/>
	<line class="st25" x1="1021.9" y1="140.1" x2="1034.3" y2="133"/>
	<path class="st26" d="M1034.9,147.2l1.6-0.1l0.5,1.6c0,0.1,0.2,0.1,0.3,0.3c0.5,1.4,3.1,3.4-0.2,4.8c0,0-7.3,2.4-2.4-3
		L1034.9,147.2z"/>
	<line class="st25" x1="1023.8" y1="145" x2="1037.5" y2="137.2"/>
	<polyline class="st26" points="1024.6,149.5 1025.2,148.2 1027.1,148.3 1025.6,150.6 1024.5,150.3 1024.4,149.5 	"/>
	<path class="st25" d="M1020.6,147.2c0,0,15.3,0.4,16.1-0.8c0,0,1.1-4.3-9.2-12"/>
	<path class="st27" d="M1019,147.3"/>
	<path class="st27" d="M1019.1,146.9"/>
	<path class="st28" d="M1018.7,147.2c1.4-0.4,0.3-3.7,0-5.6c-0.3-1.7-0.5-3.4-1-5c-0.5-1.6-1.1-3.2-1.8-4.8
		c-1.1-2.4-2.6-3.9-5.1-4.7c-2.4-0.8-4.4,0.7-4.6,3.3c-0.3,3.5,1.4,8.5,2.9,11.7C1010.8,146.1,1014.5,148.7,1018.7,147.2"/>
	<path class="st26" d="M1023.8,150c0,0-10.9,2.1-2.2,3.5c0,0,7.2,0.9,6-5.7"/>
	<path class="st25" d="M1023.7,149.9c0,0-11.8,2.2-2.4,3.8c0,0,7.8,1,6.4-6.2"/>
	<line class="st25" x1="1034.6" y1="147.5" x2="1034.8" y2="150.5"/>
	<line class="st25" x1="1036.5" y1="146.7" x2="1037.6" y2="149.2"/>
	<path class="st25" d="M1037.7,149.3c0,0,4.5,2.5-1.3,4.6c0,0-6.5,1.5-1.7-3.2"/>
	<path class="st5" d="M1016.3,137.1c-0.3,0.9-1.2,1.5-2.2,1.2c-0.9-0.3-1.5-1.2-1.2-2.2c0.3-0.9,1.2-1.5,2.2-1.2
		C1016,135.2,1016.6,136.1,1016.3,137.1z"/>
	<path class="st29" d="M1008.1,139.4c0,0,3.8,3.1,6.6-2.4"/>
	<path class="st25" d="M1036.8,146.4c0,0,8.9,2.1,9.8-4l-3.2,2.1"/>
	<path class="st30" d="M1038.8,137.8l-3.5,1.9c0,0,2.4,3.2,2.2,4.4c0,0,2.9,0.7,3.2,0.1C1040.7,144.3,1039.3,138,1038.8,137.8z"/>
	<path class="st31" d="M1038.2,136.9"/>
	<path class="st30" d="M1028.5,133.6c0,0,1.2,0.6,1.3,0.8l3.3-1.9c0,0,0.3-0.6-1.6-0.3L1028.5,133.6z"/>
	<path class="st30" d="M1022.1,141.4c0,0-0.6,1.2-0.2,1.7c0.3,0.6,1.6,0.5,1.7,0.6l7.7-4.3c0,0-1-1.3-2.4-2L1022.1,141.4z"/>
	<path class="st24" d="M1024.7,147.6"/>
	<path class="st32" d="M1025.9,135.1c0,0,0.8,0.1,1.1,0.8l-5.1,2.9C1021.9,138.9,1025.1,135,1025.9,135.1z"/>
	<path class="st32" d="M1035.1,133.9c0,0,2.2-0.2,2,2.1l-3.7,2.3l-2.4-2.2L1035.1,133.9z"/>
	<path class="st32" d="M1024.5,146l8.3-4.9c0,0,2.6,1.9,2.2,4.2c0,0-1.4,1.2-10.5,0.9"/>
	<path class="st28" d="M1018.7,146.7"/>
	<line class="st25" x1="1024.5" y1="147.3" x2="1023.7" y2="149.8"/>
	<path class="st23" d="M1029.2,147.6c0,0,0.6,3.2-1.4,3l-0.2-3.3L1029.2,147.6z"/>
	<path class="st1" d="M1010.2,132.3c0.1,0.8-0.2,1.5-0.6,1.6c-0.4,0.1-0.8-0.6-0.9-1.4c-0.1-0.8,0.2-1.5,0.6-1.6
		C1009.8,130.8,1010.2,131.4,1010.2,132.3z"/>
</g>
<path d="M166.3,61.8h1.8c0.8,0.1,1.2,0.5,1.2,1.2v0.6c0,2.4-5.2,10.1-15.7,23v0.6c0,5.8,0.4,12.3,1.2,19.3c-0.4,1.6-1.4,2.4-3,2.4
	c-2.4,0-3.6-7.2-3.6-21.7c-13.3-10.4-19.9-17.3-19.9-20.6V66c0.1-0.8,0.5-1.2,1.2-1.2h2.4c10.7,11.3,16.9,16.9,18.7,16.9
	C160.6,68.4,165.8,61.8,166.3,61.8z"/>
<path d="M203.6,56.3h1.2c0.6,0,1.4,0.8,2.4,2.4c0,2.4-4.8,3.6-14.5,3.6c-5.8,1.2-9.6,2.2-11.5,3c0.4,4,0.6,7.1,0.6,9.1v3
	c0.1,2,0.5,3,1.2,3c4,0,12.2-0.2,24.8-0.6c0.8,1.6,1.4,2.4,1.8,2.4c-0.4,2-2.1,3-4.8,3c-3.6,0-10.7,0.2-21.2,0.6l-0.6,1.2
	c0,2.3,0.8,7.1,2.4,14.5c4.9,0,13.9-0.4,27.2-1.2l1.8,2.4c0,2.4-5.4,3.6-16.3,3.6c-5.7,0.4-10.5,0.6-14.5,0.6
	c-3.8,0-6.2-13.1-7.2-39.3v-5.5C176.4,59.8,185.4,57.8,203.6,56.3z"/>
<path d="M247.8,61.2c2,0,3,5.6,3,16.9c0.8,7.3,1.2,15.1,1.2,23.6c0.8,0.1,1.2,0.6,1.2,1.2l32.6-1.2c0.8,1.6,1.4,2.4,1.8,2.4
	c0,1.1-1,2.1-3,3c-12.5,0.4-22.3,0.6-29.6,0.6h-3.6c-2.8,0-4.2-2.4-4.2-7.2l-2.4-36.2C244.8,63.1,245.8,62.1,247.8,61.2z"/>
<path d="M311.1,57.5c2,0.7,3,1.7,3,3c-0.4,1.6-1.6,2.4-3.6,2.4h-2.4c0,0.8-0.2,1.2-0.6,1.2l0.6,4.2c0.6,23,1.6,34.4,3,34.4h6
	c0.6,0,1.2,0.6,1.8,1.8v1.2c0,1.6-3.4,2.4-10.3,2.4H302l-3-0.6v-3.6c2.6-0.8,4.4-1.2,5.5-1.2c-1.2-20.3-1.8-33.2-1.8-38.7
	c-5.2-0.4-7.8-1.2-7.8-2.4v-1.2C294.8,59,300.2,58,311.1,57.5z"/>
<path d="M365.9,67.8c2,0,3,2.4,3,7.2v30.8c-0.3,4-1.3,6-3,6c-6.3-3.2-17.5-14.5-33.8-33.8h-0.6v0.6c0,7,0.6,18.3,1.8,33.9l-1.2,0.6
	h-1.8c-2.8,0-4.2-13.7-4.2-41.1c0.3-2.4,1.5-3.6,3.6-3.6c1.1,0,9.1,8.9,24.2,26.6c4.7,4.5,7.7,7.2,9,7.9h0.6V69.6
	C363.5,69,364.3,68.4,365.9,67.8z"/>
<path d="M52.9,165c10,0,16.8,4.4,20.6,13.3c0.8,3.4,1.2,5.7,1.2,6.6c0,10.2-5.8,17.2-17.5,21.2l-10.3,1.8c0.8,5.2,1.2,10.1,1.2,14.5
	l-1.2,0.6H45c-1.6,0-2.8-5.6-3.6-16.9c-0.3,0-0.7-0.6-1.2-1.8l0.6-1.2c-1.2-12.7-1.8-22.4-1.8-29v-1.8c0.9-4.8,4.9-7.2,12.1-7.2
	L52.9,165L52.9,165z M43.8,175.2c0.4,6.1,1.2,15,2.4,26.6h2.4c10,0,16.5-3.8,19.3-11.5c0.8-1.6,1.2-3.8,1.2-6.6
	c0-6.8-4.6-11.2-13.9-13.3h-5.5C45.8,170.4,43.8,172,43.8,175.2z"/>
<path d="M105.3,162.5c11.8,0,19,6.2,21.8,18.7v9.1c0,13.7-9.1,21.8-27.2,24.2c-12.1-2.6-18.1-9.8-18.1-21.8v-3.6
	c0-13.3,6.6-22,19.9-26C101.9,163.2,103.2,163,105.3,162.5z M86.6,190.4c1.4,12.5,6,18.7,13.9,18.7c14.5-1.6,21.8-8.8,21.8-21.8
	v-0.6c0-12.5-6.1-18.7-18.1-18.7c-4.6,0-9.3,3.2-13.9,9.7C88.5,179.7,87.3,183.9,86.6,190.4z"/>
<path d="M148,161.9c12.3,0,20,6.2,23,18.7v3c0,9.3-6,15.9-18.1,19.9h-0.6v1.2c9.3,2.9,13.9,4.9,13.9,6.1v1.8c0,0.8-0.4,1.2-1.2,1.2
	h-1.2c-2.2,0-9.5-2.6-21.8-7.8v0.6c0.4,2.9,0.6,5.3,0.6,7.2c-0.4,1.3-1.2,2.1-2.4,2.4c-2.8,0-4.2-6.6-4.2-19.9
	c-0.7,0-1.3-9.7-1.8-29C134.1,163.8,138.7,161.9,148,161.9z M139.6,169.8c0,10.4,0.6,20.2,1.8,29.6h2.4c10.2,0,17.3-3.8,21.2-11.5
	c0.4-2.2,0.6-4,0.6-5.4v-0.6c0-8.2-5.9-13.1-17.5-14.5C142.4,167.4,139.6,168.2,139.6,169.8z"/>
<path d="M227,166.8c1.6,0.6,2.4,1.2,2.4,1.8v1.8c0,0.6-0.6,1.2-1.8,1.8h-13.9l-6.1,0.6v5.4c0,5.8,1,18.7,3,38.7l-1.8,1.2H207
	c-2,0-3.6-14.3-4.8-42.9V174c0-0.8-0.4-1.2-1.2-1.2c-10.6,0.4-17.9,0.6-21.8,0.6l-1.2-1.8v-1.8C178,168.2,194.3,167.2,227,166.8z"/>
<path d="M268.5,161.3c2.4,0.4,3.6,1,3.6,1.8v1.8c0,0.6-0.6,1.2-1.8,1.8h-1.2c-18.1,0.6-27.2,2-27.2,4.2v4.2c0,5.9,0.4,12.5,1.2,20
	c6,0,14.3-0.2,24.8-0.6c1.6,0.6,2.4,1.2,2.4,1.8v1.8c-0.3,1.2-1.9,1.8-4.9,1.8c-12.1,0.4-19.1,0.6-21.2,0.6v0.6c0,3.8,1,8.8,3,15.1
	c0,0.6-0.8,1.6-2.4,3c-4.3,0-7.2-15.7-8.5-47.1c0-6,4-9,12.1-9C257,161.9,263.6,161.3,268.5,161.3z"/>
<path d="M302.8,162.5c11.8,0,19,6.2,21.8,18.7v9.1c0,13.7-9.1,21.8-27.2,24.2c-12.1-2.6-18.1-9.8-18.1-21.8v-3.6
	c0-13.3,6.6-22,19.9-26C299.4,163.2,300.6,163,302.8,162.5z M284.1,190.4c1.4,12.5,6,18.7,13.9,18.7c14.5-1.6,21.8-8.8,21.8-21.8
	v-0.6c0-12.5-6-18.7-18.1-18.7c-4.6,0-9.3,3.2-13.9,9.7C286,179.7,284.8,183.9,284.1,190.4z"/>
<path d="M334.6,166.2c2,0,3,5.6,3,16.9c0.8,7.3,1.2,15.1,1.2,23.6c0.8,0.1,1.2,0.6,1.2,1.2l32.6-1.2c0.8,1.6,1.4,2.4,1.8,2.4
	c0,1.1-1,2.1-3,3c-12.5,0.4-22.3,0.6-29.6,0.6h-3.6c-2.8,0-4.2-2.4-4.2-7.2l-2.4-36.2C331.6,168.1,332.6,167.1,334.6,166.2z"/>
<path d="M397.9,162.5c2,0.7,3,1.7,3,3c-0.4,1.6-1.6,2.4-3.6,2.4h-2.4c0,0.8-0.2,1.2-0.6,1.2l0.6,4.2c0.6,23,1.6,34.4,3,34.4h6
	c0.6,0,1.2,0.6,1.8,1.8v1.2c0,1.6-3.4,2.4-10.3,2.4h-6.6l-3-0.6v-3.6c2.6-0.8,4.4-1.2,5.5-1.2c-1.2-20.3-1.8-33.2-1.8-38.7
	c-5.2-0.4-7.8-1.2-7.8-2.4v-1.2C381.6,164,387,163,397.9,162.5z"/>
<path d="M436.4,162.5c11.8,0,19,6.2,21.8,18.7v9.1c0,13.7-9.1,21.8-27.2,24.2c-12.1-2.6-18.1-9.8-18.1-21.8v-3.6
	c0-13.3,6.6-22,19.9-26C433.1,163.2,434.3,163,436.4,162.5z M417.7,190.4c1.4,12.5,6,18.7,13.9,18.7c14.5-1.6,21.8-8.8,21.8-21.8
	v-0.6c0-12.5-6-18.7-18.1-18.7c-4.6,0-9.3,3.2-13.9,9.7C419.6,179.7,418.4,183.9,417.7,190.4z"/>
</svg>
